<svg width="1584" height="396" viewBox="0 0 1584 396" fill="none" xmlns="http://www.w3.org/2000/svg">
<g clip-path="url(#clip0_1_70)">
<rect width="1584" height="396" rx="8" fill="url(#paint0_linear_1_70)"/>
<g clip-path="url(#clip1_1_70)">
<path d="M108 90C108 88.9391 108.421 87.9217 109.172 87.1716C109.922 86.4214 110.939 86 112 86H136C137.061 86 138.078 86.4214 138.828 87.1716C139.579 87.9217 140 88.9391 140 90V114C140 115.061 139.579 116.078 138.828 116.828C138.078 117.579 137.061 118 136 118H112C110.939 118 109.922 117.579 109.172 116.828C108.421 116.078 108 115.061 108 114V90Z" stroke="#F4F4F5" stroke-width="4" stroke-linecap="round" stroke-linejoin="round"/>
<path d="M116 100V110" stroke="#F4F4F5" stroke-width="4" stroke-linecap="round" stroke-linejoin="round"/>
<path d="M116 94V94.02" stroke="#F4F4F5" stroke-width="4" stroke-linecap="round" stroke-linejoin="round"/>
<path d="M124 110V100" stroke="#F4F4F5" stroke-width="4" stroke-linecap="round" stroke-linejoin="round"/>
<path d="M132 110V104C132 102.939 131.579 101.922 130.828 101.172C130.078 100.421 129.061 100 128 100C126.939 100 125.922 100.421 125.172 101.172C124.421 101.922 124 102.939 124 104" stroke="#F4F4F5" stroke-width="4" stroke-linecap="round" stroke-linejoin="round"/>
</g>
<path d="M167.341 89.2074L160.017 116.418H156.499L163.824 89.2074H167.341ZM169.905 113V95.9545H173.922V113H169.905ZM171.925 93.5353C171.288 93.5353 170.741 93.3245 170.282 92.9028C169.824 92.4737 169.594 91.9595 169.594 91.3603C169.594 90.7536 169.824 90.2394 170.282 89.8177C170.741 89.3886 171.288 89.1741 171.925 89.1741C172.568 89.1741 173.116 89.3886 173.567 89.8177C174.026 90.2394 174.255 90.7536 174.255 91.3603C174.255 91.9595 174.026 92.4737 173.567 92.9028C173.116 93.3245 172.568 93.5353 171.925 93.5353ZM182.07 103.012V113H178.053V95.9545H181.893V98.8509H182.093C182.485 97.8966 183.11 97.1383 183.968 96.576C184.834 96.0137 185.903 95.7326 187.175 95.7326C188.351 95.7326 189.376 95.9841 190.249 96.4872C191.129 96.9903 191.81 97.719 192.291 98.6734C192.779 99.6278 193.02 100.786 193.012 102.147V113H188.995V102.768C188.995 101.629 188.699 100.737 188.107 100.094C187.523 99.4502 186.713 99.1284 185.677 99.1284C184.974 99.1284 184.349 99.2837 183.802 99.5945C183.261 99.8978 182.836 100.338 182.525 100.915C182.222 101.492 182.07 102.191 182.07 103.012ZM206.373 89.2074L199.049 116.418H195.531L202.856 89.2074H206.373ZM212.599 107.651L212.588 102.802H213.232L219.357 95.9545H224.051L216.516 104.344H215.684L212.599 107.651ZM208.937 113V90.2727H212.954V113H208.937ZM219.635 113L214.086 105.243L216.794 102.413L224.44 113H219.635ZM233.573 113.333C231.864 113.333 230.388 112.978 229.145 112.268C227.91 111.55 226.959 110.536 226.293 109.227C225.627 107.91 225.294 106.36 225.294 104.577C225.294 102.824 225.627 101.285 226.293 99.9607C226.966 98.629 227.906 97.5932 229.112 96.8534C230.318 96.1062 231.734 95.7326 233.362 95.7326C234.413 95.7326 235.404 95.9028 236.336 96.2431C237.276 96.576 238.104 97.0939 238.822 97.7967C239.547 98.4995 240.117 99.3947 240.531 100.482C240.945 101.562 241.152 102.85 241.152 104.344V105.576H227.181V102.868H237.302C237.294 102.099 237.128 101.414 236.802 100.815C236.477 100.209 236.022 99.7313 235.437 99.3836C234.86 99.0359 234.187 98.862 233.418 98.862C232.596 98.862 231.875 99.0618 231.254 99.4613C230.632 99.8534 230.148 100.371 229.8 101.015C229.46 101.651 229.286 102.35 229.278 103.112V105.476C229.278 106.467 229.46 107.318 229.822 108.028C230.185 108.731 230.691 109.271 231.342 109.649C231.993 110.019 232.755 110.203 233.628 110.203C234.213 110.203 234.742 110.122 235.215 109.959C235.689 109.789 236.099 109.541 236.447 109.216C236.795 108.89 237.057 108.487 237.235 108.006L240.986 108.428C240.749 109.419 240.298 110.285 239.632 111.025C238.974 111.757 238.13 112.327 237.102 112.734C236.074 113.133 234.897 113.333 233.573 113.333ZM259.288 95.9545L253.218 113H248.779L242.709 95.9545H246.992L250.91 108.617H251.087L255.016 95.9545H259.288ZM262.068 113V95.9545H266.085V113H262.068ZM264.088 93.5353C263.451 93.5353 262.904 93.3245 262.445 92.9028C261.987 92.4737 261.757 91.9595 261.757 91.3603C261.757 90.7536 261.987 90.2394 262.445 89.8177C262.904 89.3886 263.451 89.1741 264.088 89.1741C264.731 89.1741 265.279 89.3886 265.73 89.8177C266.189 90.2394 266.418 90.7536 266.418 91.3603C266.418 91.9595 266.189 92.4737 265.73 92.9028C265.279 93.3245 264.731 93.5353 264.088 93.5353ZM274.233 103.012V113H270.216V95.9545H274.056V98.8509H274.256C274.648 97.8966 275.273 97.1383 276.131 96.576C276.997 96.0137 278.066 95.7326 279.338 95.7326C280.514 95.7326 281.539 95.9841 282.412 96.4872C283.293 96.9903 283.973 97.719 284.454 98.6734C284.942 99.6278 285.183 100.786 285.175 102.147V113H281.158V102.768C281.158 101.629 280.862 100.737 280.27 100.094C279.686 99.4502 278.876 99.1284 277.84 99.1284C277.137 99.1284 276.512 99.2837 275.965 99.5945C275.425 99.8978 274.999 100.338 274.688 100.915C274.385 101.492 274.233 102.191 274.233 103.012ZM289.037 113V110.448L297.826 99.428V99.2837H289.326V95.9545H302.742V98.6956L294.375 109.527V109.671H303.031V113H289.037ZM311.712 113.344C310.632 113.344 309.659 113.152 308.793 112.767C307.935 112.375 307.254 111.798 306.751 111.036C306.256 110.274 306.008 109.334 306.008 108.217C306.008 107.255 306.185 106.46 306.54 105.831C306.896 105.202 307.38 104.699 307.994 104.322C308.608 103.945 309.3 103.66 310.069 103.467C310.846 103.268 311.649 103.123 312.477 103.035C313.476 102.931 314.286 102.839 314.908 102.757C315.529 102.668 315.981 102.535 316.262 102.358C316.55 102.173 316.694 101.888 316.694 101.503V101.437C316.694 100.601 316.447 99.9533 315.951 99.4946C315.455 99.0359 314.741 98.8066 313.809 98.8066C312.825 98.8066 312.045 99.0211 311.468 99.4502C310.898 99.8793 310.513 100.386 310.314 100.971L306.563 100.438C306.859 99.4021 307.347 98.5365 308.027 97.8411C308.708 97.1383 309.54 96.613 310.524 96.2653C311.508 95.9102 312.596 95.7326 313.787 95.7326C314.608 95.7326 315.426 95.8288 316.239 96.0211C317.053 96.2135 317.797 96.5316 318.47 96.9755C319.143 97.412 319.683 98.0075 320.09 98.7622C320.505 99.5168 320.712 100.46 320.712 101.592V113H316.85V110.658H316.717C316.473 111.132 316.129 111.576 315.685 111.99C315.248 112.397 314.697 112.726 314.031 112.978C313.373 113.222 312.6 113.344 311.712 113.344ZM312.755 110.392C313.561 110.392 314.26 110.233 314.852 109.915C315.444 109.589 315.899 109.16 316.217 108.628C316.543 108.095 316.706 107.514 316.706 106.885V104.877C316.58 104.98 316.365 105.077 316.062 105.165C315.766 105.254 315.433 105.332 315.063 105.398C314.693 105.465 314.327 105.524 313.965 105.576C313.602 105.628 313.288 105.672 313.021 105.709C312.422 105.79 311.886 105.924 311.412 106.109C310.939 106.294 310.565 106.552 310.291 106.885C310.018 107.211 309.881 107.633 309.881 108.15C309.881 108.89 310.151 109.449 310.691 109.826C311.231 110.203 311.919 110.392 312.755 110.392ZM328.768 103.012V113H324.751V95.9545H328.591V98.8509H328.791C329.183 97.8966 329.808 97.1383 330.666 96.576C331.532 96.0137 332.601 95.7326 333.873 95.7326C335.049 95.7326 336.074 95.9841 336.947 96.4872C337.827 96.9903 338.508 97.719 338.989 98.6734C339.477 99.6278 339.718 100.786 339.71 102.147V113H335.693V102.768C335.693 101.629 335.397 100.737 334.805 100.094C334.221 99.4502 333.411 99.1284 332.375 99.1284C331.672 99.1284 331.047 99.2837 330.5 99.5945C329.959 99.8978 329.534 100.338 329.223 100.915C328.92 101.492 328.768 102.191 328.768 103.012ZM343.572 113V110.448L352.361 99.428V99.2837H343.861V95.9545H357.277V98.6956L348.91 109.527V109.671H357.566V113H343.572ZM361.342 113V95.9545H365.359V113H361.342ZM363.361 93.5353C362.725 93.5353 362.178 93.3245 361.719 92.9028C361.26 92.4737 361.031 91.9595 361.031 91.3603C361.031 90.7536 361.26 90.2394 361.719 89.8177C362.178 89.3886 362.725 89.1741 363.361 89.1741C364.005 89.1741 364.553 89.3886 365.004 89.8177C365.462 90.2394 365.692 90.7536 365.692 91.3603C365.692 91.9595 365.462 92.4737 365.004 92.9028C364.553 93.3245 364.005 93.5353 363.361 93.5353Z" fill="#F4F4F5"/>
<g clip-path="url(#clip2_1_70)">
<path d="M118 180C109.4 182.8 109.4 175 106 174M130 184V177C130 175 130.2 174.2 129 173C134.6 172.4 140 170.2 140 161C139.998 158.61 139.065 156.315 137.4 154.6C138.181 152.524 138.109 150.223 137.2 148.2C137.2 148.2 135 147.6 130.2 150.8C126.134 149.741 121.866 149.741 117.8 150.8C113 147.6 110.8 148.2 110.8 148.2C109.891 150.223 109.819 152.524 110.6 154.6C108.935 156.315 108.002 158.61 108 161C108 170.2 113.4 172.4 119 173C117.8 174.2 117.8 175.4 118 177V184" stroke="#F4F4F5" stroke-width="4" stroke-linecap="round" stroke-linejoin="round"/>
</g>
<path d="M167.341 153.207L160.017 180.418H156.499L163.824 153.207H167.341ZM173.567 171.651L173.556 166.802H174.2L180.325 159.955H185.019L177.484 168.344H176.652L173.567 171.651ZM169.905 177V154.273H173.922V177H169.905ZM180.603 177L175.054 169.243L177.762 166.413L185.408 177H180.603ZM187.697 177V159.955H191.714V177H187.697ZM189.716 157.535C189.08 157.535 188.533 157.324 188.074 156.903C187.615 156.474 187.386 155.96 187.386 155.36C187.386 154.754 187.615 154.239 188.074 153.818C188.533 153.389 189.08 153.174 189.716 153.174C190.36 153.174 190.907 153.389 191.359 153.818C191.817 154.239 192.047 154.754 192.047 155.36C192.047 155.96 191.817 156.474 191.359 156.903C190.907 157.324 190.36 157.535 189.716 157.535ZM195.623 177V174.448L204.412 163.428V163.284H195.911V159.955H209.328V162.696L200.961 173.527V173.671H209.617V177H195.623ZM213.171 177V174.448L221.96 163.428V163.284H213.459V159.955H226.876V162.696L218.508 173.527V173.671H227.164V177H213.171ZM235.845 177.344C234.765 177.344 233.792 177.152 232.926 176.767C232.068 176.375 231.388 175.798 230.885 175.036C230.389 174.274 230.141 173.334 230.141 172.217C230.141 171.255 230.319 170.46 230.674 169.831C231.029 169.202 231.513 168.699 232.127 168.322C232.742 167.945 233.433 167.66 234.203 167.467C234.979 167.268 235.782 167.123 236.611 167.035C237.61 166.931 238.42 166.839 239.041 166.757C239.663 166.668 240.114 166.535 240.395 166.358C240.684 166.173 240.828 165.888 240.828 165.503V165.437C240.828 164.601 240.58 163.953 240.084 163.495C239.589 163.036 238.875 162.807 237.942 162.807C236.959 162.807 236.178 163.021 235.601 163.45C235.031 163.879 234.647 164.386 234.447 164.971L230.696 164.438C230.992 163.402 231.48 162.537 232.161 161.841C232.841 161.138 233.674 160.613 234.658 160.265C235.642 159.91 236.729 159.733 237.92 159.733C238.741 159.733 239.559 159.829 240.373 160.021C241.187 160.213 241.93 160.532 242.603 160.975C243.277 161.412 243.817 162.008 244.224 162.762C244.638 163.517 244.845 164.46 244.845 165.592V177H240.983V174.658H240.85C240.606 175.132 240.262 175.576 239.818 175.99C239.381 176.397 238.83 176.726 238.164 176.978C237.506 177.222 236.733 177.344 235.845 177.344ZM236.888 174.392C237.695 174.392 238.394 174.233 238.986 173.915C239.577 173.589 240.032 173.16 240.351 172.628C240.676 172.095 240.839 171.514 240.839 170.885V168.877C240.713 168.98 240.499 169.077 240.195 169.165C239.899 169.254 239.566 169.332 239.196 169.398C238.827 169.465 238.46 169.524 238.098 169.576C237.735 169.628 237.421 169.672 237.155 169.709C236.555 169.79 236.019 169.924 235.545 170.109C235.072 170.294 234.698 170.552 234.425 170.885C234.151 171.211 234.014 171.633 234.014 172.15C234.014 172.89 234.284 173.449 234.824 173.826C235.364 174.203 236.052 174.392 236.888 174.392ZM252.902 167.012V177H248.884V159.955H252.724V162.851H252.924C253.316 161.897 253.941 161.138 254.799 160.576C255.665 160.014 256.734 159.733 258.006 159.733C259.183 159.733 260.207 159.984 261.08 160.487C261.961 160.99 262.641 161.719 263.122 162.673C263.611 163.628 263.851 164.786 263.844 166.147V177H259.826V166.768C259.826 165.629 259.53 164.737 258.939 164.094C258.354 163.45 257.544 163.128 256.508 163.128C255.805 163.128 255.18 163.284 254.633 163.594C254.093 163.898 253.667 164.338 253.357 164.915C253.053 165.492 252.902 166.191 252.902 167.012ZM274.253 177.3C272.914 177.3 271.715 176.956 270.657 176.268C269.599 175.58 268.763 174.581 268.149 173.271C267.535 171.962 267.228 170.371 267.228 168.499C267.228 166.606 267.539 165.008 268.16 163.705C268.789 162.396 269.636 161.408 270.702 160.742C271.767 160.069 272.954 159.733 274.264 159.733C275.263 159.733 276.084 159.903 276.728 160.243C277.371 160.576 277.882 160.979 278.259 161.453C278.636 161.919 278.929 162.359 279.136 162.773H279.302V154.273H283.33V177H279.38V174.314H279.136C278.929 174.729 278.629 175.169 278.237 175.635C277.845 176.094 277.327 176.486 276.683 176.811C276.04 177.137 275.229 177.3 274.253 177.3ZM275.374 174.004C276.224 174.004 276.949 173.774 277.549 173.316C278.148 172.85 278.603 172.202 278.914 171.374C279.224 170.545 279.38 169.58 279.38 168.477C279.38 167.375 279.224 166.417 278.914 165.603C278.61 164.789 278.159 164.157 277.56 163.705C276.968 163.254 276.239 163.028 275.374 163.028C274.478 163.028 273.731 163.262 273.132 163.728C272.533 164.194 272.081 164.837 271.778 165.659C271.475 166.48 271.323 167.419 271.323 168.477C271.323 169.543 271.475 170.493 271.778 171.329C272.089 172.158 272.544 172.813 273.143 173.294C273.75 173.767 274.493 174.004 275.374 174.004ZM295.157 177.333C293.448 177.333 291.972 176.978 290.73 176.268C289.494 175.55 288.543 174.536 287.878 173.227C287.212 171.91 286.879 170.36 286.879 168.577C286.879 166.824 287.212 165.285 287.878 163.961C288.551 162.629 289.49 161.593 290.696 160.853C291.902 160.106 293.319 159.733 294.947 159.733C295.997 159.733 296.988 159.903 297.921 160.243C298.86 160.576 299.689 161.094 300.406 161.797C301.131 162.5 301.701 163.395 302.115 164.482C302.53 165.562 302.737 166.85 302.737 168.344V169.576H288.765V166.868H298.886C298.879 166.099 298.712 165.414 298.387 164.815C298.061 164.209 297.606 163.731 297.022 163.384C296.445 163.036 295.771 162.862 295.002 162.862C294.181 162.862 293.459 163.062 292.838 163.461C292.217 163.853 291.732 164.371 291.384 165.015C291.044 165.651 290.87 166.35 290.863 167.112V169.476C290.863 170.467 291.044 171.318 291.406 172.028C291.769 172.731 292.276 173.271 292.927 173.649C293.578 174.019 294.34 174.203 295.213 174.203C295.797 174.203 296.326 174.122 296.8 173.959C297.273 173.789 297.684 173.541 298.032 173.216C298.379 172.89 298.642 172.487 298.819 172.006L302.57 172.428C302.334 173.419 301.882 174.285 301.217 175.025C300.558 175.757 299.715 176.327 298.686 176.734C297.658 177.133 296.482 177.333 295.157 177.333ZM320.873 159.955L314.802 177H310.363L304.293 159.955H308.577L312.494 172.617H312.672L316.6 159.955H320.873Z" fill="#F4F4F5"/>
<g clip-path="url(#clip3_1_70)">
<path d="M128 212V220C128 220.53 128.211 221.039 128.586 221.414C128.961 221.789 129.47 222 130 222H138" stroke="#F4F4F5" stroke-width="3" stroke-linecap="round" stroke-linejoin="round"/>
<path d="M134 248H114C112.939 248 111.922 247.579 111.172 246.828C110.421 246.078 110 245.061 110 244V216C110 214.939 110.421 213.922 111.172 213.172C111.922 212.421 112.939 212 114 212H128L138 222V244C138 245.061 137.579 246.078 136.828 246.828C136.078 247.579 135.061 248 134 248Z" stroke="#F4F4F5" stroke-width="3" stroke-linecap="round" stroke-linejoin="round"/>
<path d="M122 231C122 230.204 121.684 229.441 121.121 228.879C120.559 228.316 119.796 228 119 228C118.204 228 117.441 228.316 116.879 228.879C116.316 229.441 116 230.204 116 231V237C116 237.796 116.316 238.559 116.879 239.121C117.441 239.684 118.204 240 119 240C119.796 240 120.559 239.684 121.121 239.121C121.684 238.559 122 237.796 122 237" stroke="#F4F4F5" stroke-width="3" stroke-linecap="round" stroke-linejoin="round"/>
<path d="M126 228L129 240L132 228" stroke="#F4F4F5" stroke-width="3" stroke-linecap="round" stroke-linejoin="round"/>
</g>
<path d="M165.499 241.333C163.798 241.333 162.337 240.959 161.116 240.212C159.903 239.465 158.967 238.433 158.308 237.116C157.657 235.792 157.332 234.268 157.332 232.544C157.332 230.813 157.665 229.285 158.33 227.961C158.996 226.629 159.936 225.593 161.149 224.853C162.37 224.106 163.813 223.733 165.477 223.733C166.861 223.733 168.085 223.988 169.15 224.498C170.223 225.001 171.078 225.715 171.714 226.64C172.35 227.557 172.713 228.63 172.801 229.858H168.962C168.806 229.037 168.436 228.353 167.852 227.805C167.275 227.25 166.502 226.973 165.533 226.973C164.711 226.973 163.99 227.195 163.369 227.639C162.747 228.075 162.263 228.704 161.915 229.525C161.575 230.347 161.404 231.331 161.404 232.477C161.404 233.639 161.575 234.638 161.915 235.474C162.255 236.302 162.732 236.942 163.346 237.393C163.968 237.837 164.697 238.059 165.533 238.059C166.124 238.059 166.653 237.948 167.119 237.726C167.593 237.497 167.989 237.168 168.307 236.739C168.625 236.31 168.843 235.788 168.962 235.174H172.801C172.705 236.38 172.35 237.449 171.736 238.381C171.122 239.306 170.286 240.031 169.228 240.556C168.17 241.074 166.927 241.333 165.499 241.333ZM191.325 223.955L185.255 241H180.816L174.746 223.955H179.03L182.947 236.617H183.125L187.053 223.955H191.325ZM195.512 241.244C194.839 241.244 194.262 241.007 193.781 240.534C193.3 240.06 193.063 239.483 193.071 238.803C193.063 238.137 193.3 237.567 193.781 237.094C194.262 236.62 194.839 236.384 195.512 236.384C196.163 236.384 196.729 236.62 197.21 237.094C197.698 237.567 197.946 238.137 197.953 238.803C197.946 239.254 197.828 239.665 197.598 240.035C197.376 240.404 197.08 240.7 196.71 240.922C196.348 241.137 195.948 241.244 195.512 241.244ZM205.763 235.651L205.752 230.802H206.396L212.521 223.955H217.215L209.68 232.344H208.848L205.763 235.651ZM202.101 241V218.273H206.118V241H202.101ZM212.799 241L207.25 233.243L209.958 230.413L217.604 241H212.799ZM219.893 241V223.955H223.91V241H219.893ZM221.912 221.535C221.276 221.535 220.729 221.324 220.27 220.903C219.811 220.474 219.582 219.96 219.582 219.36C219.582 218.754 219.811 218.239 220.27 217.818C220.729 217.389 221.276 217.174 221.912 217.174C222.556 217.174 223.104 217.389 223.555 217.818C224.014 218.239 224.243 218.754 224.243 219.36C224.243 219.96 224.014 220.474 223.555 220.903C223.104 221.324 222.556 221.535 221.912 221.535ZM227.819 241V238.448L236.608 227.428V227.284H228.107V223.955H241.524V226.696L233.157 237.527V237.671H241.813V241H227.819ZM245.367 241V238.448L254.156 227.428V227.284H245.655V223.955H259.072V226.696L250.704 237.527V237.671H259.36V241H245.367ZM268.041 241.344C266.961 241.344 265.988 241.152 265.123 240.767C264.264 240.375 263.584 239.798 263.081 239.036C262.585 238.274 262.337 237.334 262.337 236.217C262.337 235.255 262.515 234.46 262.87 233.831C263.225 233.202 263.709 232.699 264.324 232.322C264.938 231.945 265.629 231.66 266.399 231.467C267.176 231.268 267.978 231.123 268.807 231.035C269.806 230.931 270.616 230.839 271.237 230.757C271.859 230.668 272.31 230.535 272.591 230.358C272.88 230.173 273.024 229.888 273.024 229.503V229.437C273.024 228.601 272.776 227.953 272.28 227.495C271.785 227.036 271.071 226.807 270.139 226.807C269.155 226.807 268.374 227.021 267.797 227.45C267.227 227.879 266.843 228.386 266.643 228.971L262.892 228.438C263.188 227.402 263.676 226.537 264.357 225.841C265.037 225.138 265.87 224.613 266.854 224.265C267.838 223.91 268.925 223.733 270.116 223.733C270.938 223.733 271.755 223.829 272.569 224.021C273.383 224.213 274.126 224.532 274.799 224.975C275.473 225.412 276.013 226.008 276.42 226.762C276.834 227.517 277.041 228.46 277.041 229.592V241H273.179V238.658H273.046C272.802 239.132 272.458 239.576 272.014 239.99C271.577 240.397 271.026 240.726 270.36 240.978C269.702 241.222 268.929 241.344 268.041 241.344ZM269.084 238.392C269.891 238.392 270.59 238.233 271.182 237.915C271.774 237.589 272.229 237.16 272.547 236.628C272.872 236.095 273.035 235.514 273.035 234.885V232.877C272.909 232.98 272.695 233.077 272.391 233.165C272.095 233.254 271.762 233.332 271.393 233.398C271.023 233.465 270.656 233.524 270.294 233.576C269.931 233.628 269.617 233.672 269.351 233.709C268.751 233.79 268.215 233.924 267.741 234.109C267.268 234.294 266.894 234.552 266.621 234.885C266.347 235.211 266.21 235.633 266.21 236.15C266.21 236.89 266.48 237.449 267.02 237.826C267.56 238.203 268.248 238.392 269.084 238.392ZM285.098 231.012V241H281.08V223.955H284.92V226.851H285.12C285.512 225.897 286.137 225.138 286.995 224.576C287.861 224.014 288.93 223.733 290.202 223.733C291.379 223.733 292.403 223.984 293.276 224.487C294.157 224.99 294.837 225.719 295.318 226.673C295.807 227.628 296.047 228.786 296.04 230.147V241H292.022V230.768C292.022 229.629 291.726 228.737 291.135 228.094C290.55 227.45 289.74 227.128 288.704 227.128C288.001 227.128 287.376 227.284 286.829 227.594C286.289 227.898 285.863 228.338 285.553 228.915C285.249 229.492 285.098 230.191 285.098 231.012ZM302.598 241.244C301.925 241.244 301.348 241.007 300.867 240.534C300.386 240.06 300.149 239.483 300.157 238.803C300.149 238.137 300.386 237.567 300.867 237.094C301.348 236.62 301.925 236.384 302.598 236.384C303.249 236.384 303.815 236.62 304.296 237.094C304.784 237.567 305.032 238.137 305.04 238.803C305.032 239.254 304.914 239.665 304.684 240.035C304.462 240.404 304.167 240.7 303.797 240.922C303.434 241.137 303.035 241.244 302.598 241.244ZM315.513 241.3C314.174 241.3 312.975 240.956 311.917 240.268C310.859 239.58 310.023 238.581 309.409 237.271C308.795 235.962 308.488 234.371 308.488 232.499C308.488 230.606 308.799 229.008 309.42 227.705C310.049 226.396 310.896 225.408 311.961 224.742C313.027 224.069 314.214 223.733 315.524 223.733C316.522 223.733 317.344 223.903 317.987 224.243C318.631 224.576 319.141 224.979 319.519 225.453C319.896 225.919 320.188 226.359 320.395 226.773H320.562V218.273H324.59V241H320.64V238.314H320.395C320.188 238.729 319.889 239.169 319.497 239.635C319.104 240.094 318.587 240.486 317.943 240.811C317.299 241.137 316.489 241.3 315.513 241.3ZM316.633 238.004C317.484 238.004 318.209 237.774 318.809 237.316C319.408 236.85 319.863 236.202 320.173 235.374C320.484 234.545 320.64 233.58 320.64 232.477C320.64 231.375 320.484 230.417 320.173 229.603C319.87 228.789 319.419 228.157 318.82 227.705C318.228 227.254 317.499 227.028 316.633 227.028C315.738 227.028 314.991 227.262 314.392 227.728C313.793 228.194 313.341 228.837 313.038 229.659C312.735 230.48 312.583 231.419 312.583 232.477C312.583 233.543 312.735 234.493 313.038 235.329C313.349 236.158 313.804 236.813 314.403 237.294C315.01 237.767 315.753 238.004 316.633 238.004ZM336.417 241.333C334.708 241.333 333.232 240.978 331.989 240.268C330.754 239.55 329.803 238.536 329.137 237.227C328.471 235.91 328.139 234.36 328.139 232.577C328.139 230.824 328.471 229.285 329.137 227.961C329.811 226.629 330.75 225.593 331.956 224.853C333.162 224.106 334.579 223.733 336.206 223.733C337.257 223.733 338.248 223.903 339.18 224.243C340.12 224.576 340.949 225.094 341.666 225.797C342.391 226.5 342.961 227.395 343.375 228.482C343.789 229.562 343.997 230.85 343.997 232.344V233.576H330.025V230.868H340.146C340.138 230.099 339.972 229.414 339.646 228.815C339.321 228.209 338.866 227.731 338.281 227.384C337.704 227.036 337.031 226.862 336.262 226.862C335.441 226.862 334.719 227.062 334.098 227.461C333.476 227.853 332.992 228.371 332.644 229.015C332.304 229.651 332.13 230.35 332.122 231.112V233.476C332.122 234.467 332.304 235.318 332.666 236.028C333.029 236.731 333.536 237.271 334.187 237.649C334.838 238.019 335.6 238.203 336.473 238.203C337.057 238.203 337.586 238.122 338.06 237.959C338.533 237.789 338.944 237.541 339.291 237.216C339.639 236.89 339.902 236.487 340.079 236.006L343.83 236.428C343.593 237.419 343.142 238.285 342.476 239.025C341.818 239.757 340.974 240.327 339.946 240.734C338.918 241.133 337.741 241.333 336.417 241.333ZM362.132 223.955L356.062 241H351.623L345.553 223.955H349.837L353.754 236.617H353.931L357.86 223.955H362.132Z" fill="#F4F4F5"/>
<g clip-path="url(#clip4_1_70)">
<path d="M112 300H142" stroke="#F4F4F5" stroke-width="4" stroke-linecap="round" stroke-linejoin="round"/>
<path d="M142 308H112" stroke="#F4F4F5" stroke-width="4" stroke-linecap="round" stroke-linejoin="round"/>
<path d="M130 292H142" stroke="#F4F4F5" stroke-width="4" stroke-linecap="round" stroke-linejoin="round"/>
<path d="M142 284H130" stroke="#F4F4F5" stroke-width="4" stroke-linecap="round" stroke-linejoin="round"/>
<path d="M118 288H120C120.396 288 120.782 288.117 121.111 288.337C121.44 288.557 121.696 288.869 121.848 289.235C121.999 289.6 122.039 290.002 121.962 290.39C121.884 290.778 121.694 291.135 121.414 291.414C121.135 291.694 120.778 291.884 120.39 291.962C120.002 292.039 119.6 291.999 119.235 291.848C118.869 291.696 118.557 291.44 118.337 291.111C118.117 290.782 118 290.396 118 290V285C118 283.939 118.421 282.922 119.172 282.172C119.922 281.421 120.939 281 122 281" stroke="#F4F4F5" stroke-width="4" stroke-linecap="round" stroke-linejoin="round"/>
<path d="M106 288H108C108.396 288 108.782 288.117 109.111 288.337C109.44 288.557 109.696 288.869 109.848 289.235C109.999 289.6 110.039 290.002 109.962 290.39C109.884 290.778 109.694 291.135 109.414 291.414C109.135 291.694 108.778 291.884 108.39 291.962C108.002 292.039 107.6 291.999 107.235 291.848C106.869 291.696 106.557 291.44 106.337 291.111C106.117 290.782 106 290.396 106 290V285C106 283.939 106.421 282.922 107.172 282.172C107.922 281.421 108.939 281 110 281" stroke="#F4F4F5" stroke-width="4" stroke-linecap="round" stroke-linejoin="round"/>
</g>
<path d="M158.242 305V282.273H162.259V290.773H162.425C162.632 290.359 162.925 289.919 163.302 289.453C163.679 288.979 164.19 288.576 164.833 288.243C165.477 287.903 166.298 287.733 167.297 287.733C168.614 287.733 169.801 288.069 170.859 288.742C171.925 289.408 172.768 290.396 173.389 291.705C174.018 293.008 174.333 294.606 174.333 296.499C174.333 298.371 174.026 299.962 173.412 301.271C172.798 302.581 171.962 303.58 170.904 304.268C169.846 304.956 168.647 305.3 167.308 305.3C166.332 305.3 165.521 305.137 164.878 304.811C164.234 304.486 163.716 304.094 163.324 303.635C162.94 303.169 162.64 302.729 162.425 302.314H162.192V305H158.242ZM162.181 296.477C162.181 297.58 162.337 298.545 162.647 299.374C162.965 300.202 163.42 300.85 164.012 301.316C164.612 301.774 165.337 302.004 166.187 302.004C167.075 302.004 167.819 301.767 168.418 301.294C169.017 300.813 169.468 300.158 169.772 299.329C170.082 298.493 170.238 297.543 170.238 296.477C170.238 295.419 170.086 294.48 169.783 293.659C169.48 292.837 169.028 292.194 168.429 291.728C167.83 291.262 167.083 291.028 166.187 291.028C165.329 291.028 164.6 291.254 164.001 291.705C163.402 292.157 162.947 292.789 162.636 293.603C162.333 294.417 162.181 295.375 162.181 296.477ZM181.765 282.273V305H177.748V282.273H181.765ZM193.331 305.333C191.667 305.333 190.224 304.967 189.003 304.234C187.783 303.502 186.836 302.477 186.162 301.16C185.497 299.843 185.164 298.305 185.164 296.544C185.164 294.783 185.497 293.241 186.162 291.916C186.836 290.592 187.783 289.564 189.003 288.831C190.224 288.099 191.667 287.733 193.331 287.733C194.996 287.733 196.439 288.099 197.659 288.831C198.88 289.564 199.823 290.592 200.489 291.916C201.162 293.241 201.499 294.783 201.499 296.544C201.499 298.305 201.162 299.843 200.489 301.16C199.823 302.477 198.88 303.502 197.659 304.234C196.439 304.967 194.996 305.333 193.331 305.333ZM193.354 302.115C194.256 302.115 195.011 301.867 195.617 301.371C196.224 300.868 196.675 300.195 196.971 299.351C197.275 298.508 197.426 297.569 197.426 296.533C197.426 295.49 197.275 294.546 196.971 293.703C196.675 292.852 196.224 292.175 195.617 291.672C195.011 291.169 194.256 290.918 193.354 290.918C192.429 290.918 191.659 291.169 191.045 291.672C190.439 292.175 189.984 292.852 189.68 293.703C189.384 294.546 189.236 295.49 189.236 296.533C189.236 297.569 189.384 298.508 189.68 299.351C189.984 300.195 190.439 300.868 191.045 301.371C191.659 301.867 192.429 302.115 193.354 302.115ZM212.322 311.747C210.879 311.747 209.64 311.551 208.604 311.159C207.568 310.774 206.736 310.256 206.107 309.605C205.478 308.954 205.042 308.233 204.798 307.441L208.415 306.565C208.578 306.898 208.815 307.227 209.126 307.552C209.436 307.885 209.854 308.159 210.38 308.374C210.912 308.596 211.582 308.706 212.388 308.706C213.527 308.706 214.471 308.429 215.218 307.874C215.965 307.327 216.339 306.424 216.339 305.166V301.937H216.139C215.932 302.351 215.629 302.777 215.229 303.213C214.837 303.65 214.315 304.016 213.664 304.312C213.021 304.608 212.211 304.756 211.234 304.756C209.925 304.756 208.737 304.449 207.672 303.835C206.614 303.213 205.77 302.289 205.142 301.06C204.52 299.825 204.209 298.279 204.209 296.422C204.209 294.55 204.52 292.971 205.142 291.683C205.77 290.389 206.618 289.408 207.683 288.742C208.748 288.069 209.936 287.733 211.245 287.733C212.244 287.733 213.065 287.903 213.709 288.243C214.36 288.576 214.878 288.979 215.262 289.453C215.647 289.919 215.939 290.359 216.139 290.773H216.361V287.955H220.323V305.277C220.323 306.735 219.975 307.941 219.28 308.895C218.584 309.85 217.633 310.563 216.428 311.037C215.222 311.51 213.853 311.747 212.322 311.747ZM212.355 301.604C213.206 301.604 213.931 301.397 214.53 300.983C215.129 300.568 215.584 299.973 215.895 299.196C216.206 298.419 216.361 297.487 216.361 296.4C216.361 295.327 216.206 294.387 215.895 293.581C215.592 292.774 215.14 292.149 214.541 291.705C213.949 291.254 213.22 291.028 212.355 291.028C211.46 291.028 210.712 291.262 210.113 291.728C209.514 292.194 209.063 292.834 208.759 293.647C208.456 294.454 208.304 295.371 208.304 296.4C208.304 297.443 208.456 298.356 208.759 299.141C209.07 299.917 209.525 300.524 210.124 300.961C210.731 301.39 211.474 301.604 212.355 301.604ZM226.915 305.244C226.241 305.244 225.664 305.007 225.183 304.534C224.702 304.06 224.466 303.483 224.473 302.803C224.466 302.137 224.702 301.567 225.183 301.094C225.664 300.62 226.241 300.384 226.915 300.384C227.566 300.384 228.132 300.62 228.612 301.094C229.101 301.567 229.349 302.137 229.356 302.803C229.349 303.254 229.23 303.665 229.001 304.035C228.779 304.404 228.483 304.7 228.113 304.922C227.751 305.137 227.351 305.244 226.915 305.244ZM237.166 299.651L237.155 294.802H237.798L243.924 287.955H248.618L241.083 296.344H240.251L237.166 299.651ZM233.504 305V282.273H237.521V305H233.504ZM244.201 305L238.653 297.243L241.36 294.413L249.006 305H244.201ZM251.295 305V287.955H255.313V305H251.295ZM253.315 285.535C252.679 285.535 252.131 285.324 251.673 284.903C251.214 284.474 250.985 283.96 250.985 283.36C250.985 282.754 251.214 282.239 251.673 281.818C252.131 281.389 252.679 281.174 253.315 281.174C253.959 281.174 254.506 281.389 254.957 281.818C255.416 282.239 255.645 282.754 255.645 283.36C255.645 283.96 255.416 284.474 254.957 284.903C254.506 285.324 253.959 285.535 253.315 285.535ZM259.222 305V302.448L268.011 291.428V291.284H259.51V287.955H272.927V290.696L264.559 301.527V301.671H273.215V305H259.222ZM276.769 305V302.448L285.558 291.428V291.284H277.058V287.955H290.474V290.696L282.107 301.527V301.671H290.763V305H276.769ZM299.444 305.344C298.364 305.344 297.391 305.152 296.525 304.767C295.667 304.375 294.986 303.798 294.483 303.036C293.988 302.274 293.74 301.334 293.74 300.217C293.74 299.255 293.917 298.46 294.272 297.831C294.627 297.202 295.112 296.699 295.726 296.322C296.34 295.945 297.032 295.66 297.801 295.467C298.578 295.268 299.381 295.123 300.209 295.035C301.208 294.931 302.018 294.839 302.64 294.757C303.261 294.668 303.712 294.535 303.994 294.358C304.282 294.173 304.426 293.888 304.426 293.503V293.437C304.426 292.601 304.179 291.953 303.683 291.495C303.187 291.036 302.473 290.807 301.541 290.807C300.557 290.807 299.777 291.021 299.2 291.45C298.63 291.879 298.245 292.386 298.045 292.971L294.295 292.438C294.59 291.402 295.079 290.537 295.759 289.841C296.44 289.138 297.272 288.613 298.256 288.265C299.24 287.91 300.328 287.733 301.519 287.733C302.34 287.733 303.158 287.829 303.971 288.021C304.785 288.213 305.529 288.532 306.202 288.975C306.875 289.412 307.415 290.008 307.822 290.762C308.236 291.517 308.444 292.46 308.444 293.592V305H304.582V302.658H304.449C304.204 303.132 303.86 303.576 303.417 303.99C302.98 304.397 302.429 304.726 301.763 304.978C301.105 305.222 300.331 305.344 299.444 305.344ZM300.487 302.392C301.293 302.392 301.992 302.233 302.584 301.915C303.176 301.589 303.631 301.16 303.949 300.628C304.275 300.095 304.438 299.514 304.438 298.885V296.877C304.312 296.98 304.097 297.077 303.794 297.165C303.498 297.254 303.165 297.332 302.795 297.398C302.425 297.465 302.059 297.524 301.696 297.576C301.334 297.628 301.02 297.672 300.753 297.709C300.154 297.79 299.618 297.924 299.144 298.109C298.671 298.294 298.297 298.552 298.023 298.885C297.75 299.211 297.613 299.633 297.613 300.15C297.613 300.89 297.883 301.449 298.423 301.826C298.963 302.203 299.651 302.392 300.487 302.392ZM316.5 295.012V305H312.483V287.955H316.323V290.851H316.522C316.915 289.897 317.54 289.138 318.398 288.576C319.263 288.014 320.333 287.733 321.605 287.733C322.781 287.733 323.806 287.984 324.679 288.487C325.559 288.99 326.24 289.719 326.721 290.673C327.209 291.628 327.45 292.786 327.442 294.147V305H323.425V294.768C323.425 293.629 323.129 292.737 322.537 292.094C321.953 291.45 321.143 291.128 320.107 291.128C319.404 291.128 318.779 291.284 318.231 291.594C317.691 291.898 317.266 292.338 316.955 292.915C316.652 293.492 316.5 294.191 316.5 295.012ZM334.001 305.244C333.327 305.244 332.75 305.007 332.27 304.534C331.789 304.06 331.552 303.483 331.559 302.803C331.552 302.137 331.789 301.567 332.27 301.094C332.75 300.62 333.327 300.384 334.001 300.384C334.652 300.384 335.218 300.62 335.699 301.094C336.187 301.567 336.435 302.137 336.442 302.803C336.435 303.254 336.316 303.665 336.087 304.035C335.865 304.404 335.569 304.7 335.199 304.922C334.837 305.137 334.437 305.244 334.001 305.244ZM346.915 305.3C345.576 305.3 344.378 304.956 343.32 304.268C342.262 303.58 341.426 302.581 340.812 301.271C340.198 299.962 339.891 298.371 339.891 296.499C339.891 294.606 340.201 293.008 340.823 291.705C341.452 290.396 342.299 289.408 343.364 288.742C344.429 288.069 345.617 287.733 346.926 287.733C347.925 287.733 348.746 287.903 349.39 288.243C350.034 288.576 350.544 288.979 350.921 289.453C351.299 289.919 351.591 290.359 351.798 290.773H351.964V282.273H355.993V305H352.042V302.314H351.798C351.591 302.729 351.291 303.169 350.899 303.635C350.507 304.094 349.989 304.486 349.346 304.811C348.702 305.137 347.892 305.3 346.915 305.3ZM348.036 302.004C348.887 302.004 349.612 301.774 350.211 301.316C350.81 300.85 351.265 300.202 351.576 299.374C351.887 298.545 352.042 297.58 352.042 296.477C352.042 295.375 351.887 294.417 351.576 293.603C351.273 292.789 350.821 292.157 350.222 291.705C349.63 291.254 348.902 291.028 348.036 291.028C347.141 291.028 346.394 291.262 345.794 291.728C345.195 292.194 344.744 292.837 344.44 293.659C344.137 294.48 343.986 295.419 343.986 296.477C343.986 297.543 344.137 298.493 344.44 299.329C344.751 300.158 345.206 300.813 345.805 301.294C346.412 301.767 347.156 302.004 348.036 302.004ZM367.82 305.333C366.111 305.333 364.635 304.978 363.392 304.268C362.156 303.55 361.206 302.536 360.54 301.227C359.874 299.91 359.541 298.36 359.541 296.577C359.541 294.824 359.874 293.285 360.54 291.961C361.213 290.629 362.153 289.593 363.359 288.853C364.565 288.106 365.981 287.733 367.609 287.733C368.659 287.733 369.651 287.903 370.583 288.243C371.523 288.576 372.351 289.094 373.069 289.797C373.794 290.5 374.363 291.395 374.778 292.482C375.192 293.562 375.399 294.85 375.399 296.344V297.576H361.428V294.868H371.548C371.541 294.099 371.375 293.414 371.049 292.815C370.724 292.209 370.269 291.731 369.684 291.384C369.107 291.036 368.434 290.862 367.664 290.862C366.843 290.862 366.122 291.062 365.5 291.461C364.879 291.853 364.394 292.371 364.047 293.015C363.706 293.651 363.532 294.35 363.525 295.112V297.476C363.525 298.467 363.706 299.318 364.069 300.028C364.431 300.731 364.938 301.271 365.589 301.649C366.24 302.019 367.002 302.203 367.875 302.203C368.46 302.203 368.989 302.122 369.462 301.959C369.936 301.789 370.346 301.541 370.694 301.216C371.042 300.89 371.304 300.487 371.482 300.006L375.233 300.428C374.996 301.419 374.545 302.285 373.879 303.025C373.22 303.757 372.377 304.327 371.349 304.734C370.32 305.133 369.144 305.333 367.82 305.333ZM393.535 287.955L387.465 305H383.026L376.956 287.955H381.239L385.156 300.617H385.334L389.262 287.955H393.535ZM403.822 281.207L396.498 308.418H392.98L400.304 281.207H403.822ZM413.932 305.333C412.223 305.333 410.747 304.978 409.504 304.268C408.268 303.55 407.318 302.536 406.652 301.227C405.986 299.91 405.653 298.36 405.653 296.577C405.653 294.824 405.986 293.285 406.652 291.961C407.325 290.629 408.265 289.593 409.471 288.853C410.677 288.106 412.093 287.733 413.721 287.733C414.771 287.733 415.763 287.903 416.695 288.243C417.635 288.576 418.463 289.094 419.181 289.797C419.906 290.5 420.476 291.395 420.89 292.482C421.304 293.562 421.511 294.85 421.511 296.344V297.576H407.54V294.868H417.66C417.653 294.099 417.487 293.414 417.161 292.815C416.836 292.209 416.381 291.731 415.796 291.384C415.219 291.036 414.546 290.862 413.776 290.862C412.955 290.862 412.234 291.062 411.612 291.461C410.991 291.853 410.506 292.371 410.159 293.015C409.818 293.651 409.645 294.35 409.637 295.112V297.476C409.637 298.467 409.818 299.318 410.181 300.028C410.543 300.731 411.05 301.271 411.701 301.649C412.352 302.019 413.114 302.203 413.987 302.203C414.572 302.203 415.101 302.122 415.574 301.959C416.048 301.789 416.458 301.541 416.806 301.216C417.154 300.89 417.416 300.487 417.594 300.006L421.345 300.428C421.108 301.419 420.657 302.285 419.991 303.025C419.332 303.757 418.489 304.327 417.461 304.734C416.432 305.133 415.256 305.333 413.932 305.333ZM428.927 295.012V305H424.91V287.955H428.749V290.851H428.949C429.341 289.897 429.966 289.138 430.825 288.576C431.69 288.014 432.759 287.733 434.032 287.733C435.208 287.733 436.233 287.984 437.106 288.487C437.986 288.99 438.667 289.719 439.148 290.673C439.636 291.628 439.876 292.786 439.869 294.147V305H435.852V294.768C435.852 293.629 435.556 292.737 434.964 292.094C434.379 291.45 433.569 291.128 432.534 291.128C431.831 291.128 431.206 291.284 430.658 291.594C430.118 291.898 429.693 292.338 429.382 292.915C429.079 293.492 428.927 294.191 428.927 295.012Z" fill="#F4F4F5"/>
<g filter="url(#filter0_d_1_70)">
<path d="M1092.26 170V121.025H1102.61V142.619H1103.26L1120.88 121.025H1133.29L1115.12 142.954L1133.51 170H1121.12L1107.7 149.865L1102.61 156.082V170H1092.26ZM1149.04 121.025V170H1138.68V121.025H1149.04ZM1157.03 170V163.854L1181.47 129.562H1156.98V121.025H1194.48V127.171L1170.02 161.463H1194.53V170H1157.03ZM1201.95 170V163.854L1226.39 129.562H1201.9V121.025H1239.4V127.171L1214.93 161.463H1239.44V170H1201.95ZM1255.83 170H1244.73L1261.64 121.025H1274.98L1291.87 170H1280.77L1268.5 132.217H1268.12L1255.83 170ZM1255.14 150.75H1281.35V158.832H1255.14V150.75ZM1338.73 121.025V170H1329.78L1308.48 139.176H1308.12V170H1297.76V121.025H1306.85L1327.99 151.826H1328.42V121.025H1338.73Z" fill="#66CCFF"/>
<path d="M1364.64 170H1347.28V121.025H1364.79C1369.71 121.025 1373.95 122.006 1377.51 123.967C1381.06 125.912 1383.8 128.71 1385.71 132.36C1387.64 136.011 1388.6 140.379 1388.6 145.465C1388.6 150.566 1387.64 154.95 1385.71 158.617C1383.8 162.284 1381.05 165.098 1377.46 167.059C1373.89 169.02 1369.62 170 1364.64 170ZM1357.63 161.128H1364.21C1367.27 161.128 1369.85 160.586 1371.94 159.502C1374.04 158.402 1375.62 156.704 1376.67 154.408C1377.74 152.097 1378.27 149.116 1378.27 145.465C1378.27 141.846 1377.74 138.889 1376.67 136.593C1375.62 134.297 1374.05 132.607 1371.96 131.523C1369.87 130.439 1367.3 129.897 1364.24 129.897H1357.63V161.128ZM1396.27 170V121.025H1429.27V129.562H1406.63V141.232H1427.58V149.769H1406.63V161.463H1429.37V170H1396.27ZM1446.35 121.025L1458.19 158.235H1458.64L1470.51 121.025H1481.98L1465.1 170H1451.76L1434.85 121.025H1446.35Z" fill="#00FFA6"/>
</g>
<line x1="1484" y1="206" x2="834" y2="206" stroke="#636383" stroke-width="4"/>
<path d="M1161.7 234.014C1161.57 232.838 1161.04 231.923 1160.11 231.268C1159.19 230.613 1157.98 230.286 1156.5 230.286C1155.46 230.286 1154.57 230.443 1153.82 230.757C1153.08 231.071 1152.51 231.497 1152.12 232.035C1151.72 232.574 1151.52 233.188 1151.51 233.879C1151.51 234.453 1151.64 234.951 1151.9 235.373C1152.17 235.795 1152.53 236.154 1152.99 236.45C1153.45 236.737 1153.96 236.979 1154.51 237.177C1155.07 237.374 1155.63 237.54 1156.19 237.674L1158.78 238.321C1159.82 238.563 1160.82 238.89 1161.78 239.303C1162.75 239.716 1163.61 240.236 1164.38 240.864C1165.15 241.492 1165.76 242.25 1166.21 243.139C1166.66 244.027 1166.88 245.068 1166.88 246.261C1166.88 247.876 1166.47 249.298 1165.64 250.528C1164.82 251.748 1163.62 252.703 1162.06 253.394C1160.51 254.076 1158.63 254.417 1156.42 254.417C1154.28 254.417 1152.42 254.085 1150.84 253.421C1149.27 252.757 1148.04 251.788 1147.15 250.514C1146.27 249.24 1145.79 247.688 1145.72 245.857H1150.64C1150.71 246.818 1151 247.616 1151.52 248.253C1152.04 248.89 1152.72 249.366 1153.56 249.68C1154.4 249.994 1155.34 250.151 1156.38 250.151C1157.47 250.151 1158.42 249.989 1159.24 249.666C1160.06 249.334 1160.71 248.877 1161.17 248.293C1161.64 247.701 1161.88 247.01 1161.89 246.221C1161.88 245.503 1161.67 244.911 1161.25 244.444C1160.84 243.969 1160.26 243.574 1159.52 243.26C1158.78 242.937 1157.92 242.65 1156.93 242.399L1153.8 241.591C1151.53 241.008 1149.73 240.124 1148.41 238.94C1147.1 237.746 1146.45 236.163 1146.45 234.189C1146.45 232.565 1146.89 231.142 1147.77 229.922C1148.66 228.702 1149.86 227.755 1151.39 227.082C1152.91 226.401 1154.64 226.06 1156.57 226.06C1158.53 226.06 1160.24 226.401 1161.71 227.082C1163.19 227.755 1164.35 228.693 1165.2 229.895C1166.04 231.089 1166.48 232.461 1166.5 234.014H1161.7ZM1180.13 254.404C1178.11 254.404 1176.37 253.96 1174.88 253.071C1173.4 252.183 1172.26 250.94 1171.44 249.343C1170.63 247.746 1170.23 245.88 1170.23 243.744C1170.23 241.609 1170.63 239.738 1171.44 238.132C1172.26 236.526 1173.4 235.279 1174.88 234.391C1176.37 233.502 1178.11 233.058 1180.13 233.058C1182.15 233.058 1183.9 233.502 1185.38 234.391C1186.86 235.279 1188.01 236.526 1188.81 238.132C1189.63 239.738 1190.04 241.609 1190.04 243.744C1190.04 245.88 1189.63 247.746 1188.81 249.343C1188.01 250.94 1186.86 252.183 1185.38 253.071C1183.9 253.96 1182.15 254.404 1180.13 254.404ZM1180.16 250.501C1181.26 250.501 1182.17 250.2 1182.91 249.599C1183.64 248.989 1184.19 248.172 1184.55 247.149C1184.92 246.127 1185.1 244.987 1185.1 243.731C1185.1 242.466 1184.92 241.322 1184.55 240.299C1184.19 239.267 1183.64 238.446 1182.91 237.836C1182.17 237.226 1181.26 236.921 1180.16 236.921C1179.04 236.921 1178.11 237.226 1177.36 237.836C1176.63 238.446 1176.07 239.267 1175.71 240.299C1175.35 241.322 1175.17 242.466 1175.17 243.731C1175.17 244.987 1175.35 246.127 1175.71 247.149C1176.07 248.172 1176.63 248.989 1177.36 249.599C1178.11 250.2 1179.04 250.501 1180.16 250.501ZM1204.65 233.327V237.096H1192.42V233.327H1204.65ZM1195.48 254V231.376C1195.48 229.985 1195.77 228.828 1196.34 227.903C1196.92 226.979 1197.71 226.288 1198.68 225.831C1199.66 225.373 1200.75 225.144 1201.94 225.144C1202.78 225.144 1203.53 225.212 1204.19 225.346C1204.84 225.481 1205.33 225.602 1205.64 225.71L1204.67 229.478C1204.47 229.415 1204.21 229.352 1203.89 229.29C1203.58 229.218 1203.23 229.182 1202.84 229.182C1201.94 229.182 1201.29 229.402 1200.92 229.841C1200.55 230.272 1200.37 230.891 1200.37 231.699V254H1195.48ZM1218.78 233.327V237.096H1206.9V233.327H1218.78ZM1209.83 228.374H1214.71V247.782C1214.71 248.437 1214.8 248.94 1215 249.289C1215.21 249.63 1215.48 249.864 1215.81 249.989C1216.14 250.115 1216.51 250.178 1216.91 250.178C1217.22 250.178 1217.5 250.155 1217.75 250.11C1218.01 250.066 1218.21 250.025 1218.34 249.989L1219.16 253.798C1218.9 253.888 1218.53 253.987 1218.04 254.094C1217.57 254.202 1216.98 254.265 1216.29 254.283C1215.07 254.319 1213.97 254.135 1213 253.731C1212.02 253.318 1211.24 252.681 1210.67 251.82C1210.1 250.958 1209.82 249.882 1209.83 248.59V228.374ZM1227.12 254L1221.28 233.327H1226.25L1229.88 247.863H1230.07L1233.79 233.327H1238.7L1242.41 247.782H1242.62L1246.2 233.327H1251.18L1245.32 254H1240.25L1236.37 240.03H1236.09L1232.21 254H1227.12ZM1260.53 254.417C1259.22 254.417 1258.04 254.184 1256.99 253.717C1255.95 253.242 1255.12 252.542 1254.51 251.618C1253.91 250.694 1253.61 249.554 1253.61 248.199C1253.61 247.033 1253.82 246.068 1254.25 245.306C1254.69 244.543 1255.27 243.933 1256.02 243.475C1256.76 243.018 1257.6 242.672 1258.53 242.439C1259.48 242.197 1260.45 242.022 1261.46 241.914C1262.67 241.788 1263.65 241.676 1264.4 241.578C1265.16 241.47 1265.7 241.308 1266.04 241.093C1266.39 240.869 1266.57 240.523 1266.57 240.057V239.976C1266.57 238.962 1266.27 238.177 1265.67 237.621C1265.07 237.064 1264.2 236.786 1263.07 236.786C1261.88 236.786 1260.93 237.046 1260.23 237.567C1259.54 238.087 1259.07 238.702 1258.83 239.411L1254.28 238.765C1254.64 237.509 1255.23 236.459 1256.06 235.615C1256.88 234.763 1257.89 234.126 1259.09 233.704C1260.28 233.273 1261.6 233.058 1263.04 233.058C1264.04 233.058 1265.03 233.175 1266.02 233.408C1267 233.641 1267.91 234.027 1268.72 234.566C1269.54 235.095 1270.19 235.817 1270.69 236.732C1271.19 237.648 1271.44 238.792 1271.44 240.164V254H1266.76V251.16H1266.6C1266.3 251.734 1265.88 252.273 1265.34 252.775C1264.82 253.269 1264.15 253.668 1263.34 253.973C1262.54 254.269 1261.6 254.417 1260.53 254.417ZM1261.79 250.837C1262.77 250.837 1263.62 250.644 1264.34 250.258C1265.05 249.864 1265.6 249.343 1265.99 248.697C1266.39 248.051 1266.58 247.347 1266.58 246.584V244.148C1266.43 244.274 1266.17 244.39 1265.8 244.498C1265.44 244.606 1265.04 244.7 1264.59 244.781C1264.14 244.862 1263.7 244.933 1263.26 244.996C1262.82 245.059 1262.44 245.113 1262.11 245.158C1261.39 245.256 1260.74 245.418 1260.16 245.642C1259.59 245.866 1259.14 246.18 1258.8 246.584C1258.47 246.979 1258.31 247.49 1258.31 248.119C1258.31 249.016 1258.63 249.693 1259.29 250.151C1259.94 250.608 1260.78 250.837 1261.79 250.837ZM1276.34 254V233.327H1281.06V236.773H1281.28C1281.66 235.579 1282.3 234.66 1283.22 234.014C1284.14 233.359 1285.2 233.031 1286.38 233.031C1286.65 233.031 1286.95 233.045 1287.28 233.072C1287.62 233.09 1287.91 233.121 1288.13 233.166V237.648C1287.92 237.576 1287.6 237.513 1287.15 237.459C1286.71 237.396 1286.28 237.365 1285.87 237.365C1284.98 237.365 1284.18 237.558 1283.47 237.944C1282.77 238.321 1282.22 238.845 1281.82 239.518C1281.41 240.191 1281.21 240.967 1281.21 241.847V254H1276.34ZM1299.67 254.404C1297.6 254.404 1295.81 253.973 1294.3 253.112C1292.8 252.241 1291.65 251.012 1290.84 249.424C1290.03 247.827 1289.63 245.947 1289.63 243.785C1289.63 241.658 1290.03 239.792 1290.84 238.186C1291.66 236.571 1292.79 235.315 1294.26 234.417C1295.72 233.511 1297.44 233.058 1299.41 233.058C1300.69 233.058 1301.89 233.264 1303.02 233.677C1304.16 234.081 1305.16 234.709 1306.03 235.561C1306.91 236.414 1307.6 237.5 1308.11 238.818C1308.61 240.128 1308.86 241.69 1308.86 243.502V244.996H1291.92V241.712H1304.19C1304.18 240.779 1303.98 239.949 1303.58 239.222C1303.19 238.487 1302.64 237.908 1301.93 237.486C1301.23 237.064 1300.41 236.854 1299.48 236.854C1298.48 236.854 1297.61 237.096 1296.86 237.58C1296.1 238.056 1295.51 238.684 1295.09 239.465C1294.68 240.236 1294.47 241.084 1294.46 242.008V244.875C1294.46 246.077 1294.68 247.109 1295.12 247.97C1295.56 248.823 1296.17 249.478 1296.96 249.935C1297.75 250.384 1298.68 250.608 1299.74 250.608C1300.44 250.608 1301.09 250.51 1301.66 250.312C1302.23 250.106 1302.73 249.805 1303.15 249.411C1303.58 249.016 1303.89 248.527 1304.11 247.944L1308.66 248.455C1308.37 249.657 1307.82 250.707 1307.02 251.604C1306.22 252.493 1305.2 253.184 1303.95 253.677C1302.7 254.162 1301.27 254.404 1299.67 254.404ZM1331.94 254H1322.6V226.436H1332.13C1334.86 226.436 1337.21 226.988 1339.18 228.092C1341.15 229.186 1342.67 230.761 1343.73 232.816C1344.79 234.871 1345.32 237.329 1345.32 240.191C1345.32 243.063 1344.78 245.53 1343.72 247.594C1342.66 249.657 1341.13 251.241 1339.13 252.345C1337.13 253.448 1334.74 254 1331.94 254ZM1327.59 249.68H1331.7C1333.62 249.68 1335.22 249.33 1336.5 248.63C1337.78 247.921 1338.75 246.867 1339.39 245.467C1340.04 244.058 1340.36 242.3 1340.36 240.191C1340.36 238.083 1340.04 236.333 1339.39 234.942C1338.75 233.543 1337.79 232.497 1336.53 231.806C1335.27 231.107 1333.71 230.757 1331.84 230.757H1327.59V249.68ZM1359 254.404C1356.93 254.404 1355.14 253.973 1353.63 253.112C1352.13 252.241 1350.98 251.012 1350.17 249.424C1349.36 247.827 1348.96 245.947 1348.96 243.785C1348.96 241.658 1349.36 239.792 1350.17 238.186C1350.99 236.571 1352.12 235.315 1353.59 234.417C1355.05 233.511 1356.77 233.058 1358.74 233.058C1360.02 233.058 1361.22 233.264 1362.35 233.677C1363.49 234.081 1364.49 234.709 1365.36 235.561C1366.24 236.414 1366.93 237.5 1367.44 238.818C1367.94 240.128 1368.19 241.69 1368.19 243.502V244.996H1351.25V241.712H1363.52C1363.51 240.779 1363.31 239.949 1362.91 239.222C1362.52 238.487 1361.97 237.908 1361.26 237.486C1360.56 237.064 1359.74 236.854 1358.81 236.854C1357.81 236.854 1356.94 237.096 1356.18 237.58C1355.43 238.056 1354.84 238.684 1354.42 239.465C1354.01 240.236 1353.8 241.084 1353.79 242.008V244.875C1353.79 246.077 1354.01 247.109 1354.45 247.97C1354.89 248.823 1355.5 249.478 1356.29 249.935C1357.08 250.384 1358.01 250.608 1359.07 250.608C1359.77 250.608 1360.42 250.51 1360.99 250.312C1361.56 250.106 1362.06 249.805 1362.48 249.411C1362.91 249.016 1363.22 248.527 1363.44 247.944L1367.99 248.455C1367.7 249.657 1367.15 250.707 1366.35 251.604C1365.55 252.493 1364.52 253.184 1363.28 253.677C1362.03 254.162 1360.6 254.404 1359 254.404ZM1390.19 233.327L1382.82 254H1377.44L1370.08 233.327H1375.27L1380.02 248.684H1380.24L1385 233.327H1390.19ZM1402.01 254.404C1399.93 254.404 1398.14 253.973 1396.64 253.112C1395.14 252.241 1393.98 251.012 1393.18 249.424C1392.37 247.827 1391.97 245.947 1391.97 243.785C1391.97 241.658 1392.37 239.792 1393.18 238.186C1393.99 236.571 1395.13 235.315 1396.59 234.417C1398.06 233.511 1399.78 233.058 1401.75 233.058C1403.02 233.058 1404.23 233.264 1405.36 233.677C1406.5 234.081 1407.5 234.709 1408.37 235.561C1409.25 236.414 1409.94 237.5 1410.44 238.818C1410.95 240.128 1411.2 241.69 1411.2 243.502V244.996H1394.25V241.712H1406.53C1406.52 240.779 1406.32 239.949 1405.92 239.222C1405.53 238.487 1404.98 237.908 1404.27 237.486C1403.57 237.064 1402.75 236.854 1401.82 236.854C1400.82 236.854 1399.95 237.096 1399.19 237.58C1398.44 238.056 1397.85 238.684 1397.43 239.465C1397.02 240.236 1396.81 241.084 1396.8 242.008V244.875C1396.8 246.077 1397.02 247.109 1397.46 247.97C1397.9 248.823 1398.51 249.478 1399.3 249.935C1400.09 250.384 1401.01 250.608 1402.07 250.608C1402.78 250.608 1403.42 250.51 1404 250.312C1404.57 250.106 1405.07 249.805 1405.49 249.411C1405.91 249.016 1406.23 248.527 1406.45 247.944L1411 248.455C1410.71 249.657 1410.16 250.707 1409.35 251.604C1408.56 252.493 1407.53 253.184 1406.29 253.677C1405.04 254.162 1403.61 254.404 1402.01 254.404ZM1420.19 226.436V254H1415.32V226.436H1420.19ZM1425.2 261.752V233.327H1429.99V236.746H1430.28C1430.53 236.243 1430.88 235.71 1431.34 235.144C1431.8 234.57 1432.42 234.081 1433.2 233.677C1433.98 233.264 1434.97 233.058 1436.18 233.058C1437.78 233.058 1439.22 233.466 1440.5 234.283C1441.8 235.09 1442.82 236.288 1443.57 237.876C1444.34 239.456 1444.72 241.394 1444.72 243.691C1444.72 245.961 1444.34 247.89 1443.6 249.478C1442.86 251.066 1441.84 252.277 1440.56 253.112C1439.28 253.946 1437.82 254.363 1436.2 254.363C1435.01 254.363 1434.03 254.166 1433.25 253.771C1432.47 253.376 1431.84 252.901 1431.37 252.345C1430.9 251.779 1430.54 251.245 1430.28 250.743H1430.07V261.752H1425.2ZM1429.98 243.664C1429.98 245.001 1430.17 246.171 1430.54 247.176C1430.93 248.181 1431.48 248.966 1432.2 249.532C1432.93 250.088 1433.81 250.366 1434.84 250.366C1435.91 250.366 1436.82 250.079 1437.54 249.505C1438.27 248.922 1438.82 248.128 1439.19 247.123C1439.56 246.109 1439.75 244.956 1439.75 243.664C1439.75 242.381 1439.57 241.241 1439.2 240.245C1438.83 239.249 1438.28 238.469 1437.56 237.903C1436.83 237.338 1435.92 237.055 1434.84 237.055C1433.8 237.055 1432.91 237.329 1432.19 237.876C1431.46 238.424 1430.91 239.191 1430.53 240.178C1430.16 241.165 1429.98 242.327 1429.98 243.664ZM1458.04 254.404C1455.97 254.404 1454.18 253.973 1452.67 253.112C1451.17 252.241 1450.02 251.012 1449.21 249.424C1448.4 247.827 1448 245.947 1448 243.785C1448 241.658 1448.4 239.792 1449.21 238.186C1450.03 236.571 1451.17 235.315 1452.63 234.417C1454.09 233.511 1455.81 233.058 1457.79 233.058C1459.06 233.058 1460.26 233.264 1461.39 233.677C1462.53 234.081 1463.54 234.709 1464.41 235.561C1465.29 236.414 1465.98 237.5 1466.48 238.818C1466.98 240.128 1467.23 241.69 1467.23 243.502V244.996H1450.29V241.712H1462.56C1462.55 240.779 1462.35 239.949 1461.96 239.222C1461.56 238.487 1461.01 237.908 1460.3 237.486C1459.6 237.064 1458.79 236.854 1457.85 236.854C1456.86 236.854 1455.98 237.096 1455.23 237.58C1454.47 238.056 1453.89 238.684 1453.47 239.465C1453.05 240.236 1452.84 241.084 1452.83 242.008V244.875C1452.83 246.077 1453.05 247.109 1453.49 247.97C1453.93 248.823 1454.55 249.478 1455.34 249.935C1456.13 250.384 1457.05 250.608 1458.11 250.608C1458.82 250.608 1459.46 250.51 1460.03 250.312C1460.61 250.106 1461.11 249.805 1461.53 249.411C1461.95 249.016 1462.27 248.527 1462.48 247.944L1467.03 248.455C1466.74 249.657 1466.2 250.707 1465.39 251.604C1464.59 252.493 1463.57 253.184 1462.32 253.677C1461.07 254.162 1459.65 254.404 1458.04 254.404ZM1471.36 254V233.327H1476.08V236.773H1476.29C1476.67 235.579 1477.32 234.66 1478.23 234.014C1479.16 233.359 1480.21 233.031 1481.4 233.031C1481.66 233.031 1481.97 233.045 1482.3 233.072C1482.64 233.09 1482.92 233.121 1483.15 233.166V237.648C1482.94 237.576 1482.61 237.513 1482.16 237.459C1481.72 237.396 1481.3 237.365 1480.88 237.365C1480 237.365 1479.2 237.558 1478.49 237.944C1477.79 238.321 1477.24 238.845 1476.83 239.518C1476.43 240.191 1476.23 240.967 1476.23 241.847V254H1471.36Z" fill="#F4F4F5"/>
<path d="M1252.41 295V283.364H1253.82V293.75H1259.23V295H1252.41ZM1264.89 295.182C1264.05 295.182 1263.32 294.996 1262.71 294.625C1262.1 294.25 1261.64 293.727 1261.31 293.057C1260.98 292.383 1260.82 291.598 1260.82 290.705C1260.82 289.811 1260.98 289.023 1261.31 288.341C1261.64 287.655 1262.09 287.121 1262.68 286.739C1263.27 286.352 1263.96 286.159 1264.75 286.159C1265.2 286.159 1265.65 286.235 1266.1 286.386C1266.54 286.538 1266.94 286.784 1267.31 287.125C1267.67 287.462 1267.96 287.909 1268.18 288.466C1268.39 289.023 1268.5 289.708 1268.5 290.523V291.091H1261.77V289.932H1267.14C1267.14 289.439 1267.04 289 1266.84 288.614C1266.65 288.227 1266.37 287.922 1266.01 287.699C1265.66 287.475 1265.23 287.364 1264.75 287.364C1264.22 287.364 1263.75 287.496 1263.36 287.761C1262.98 288.023 1262.68 288.364 1262.47 288.784C1262.26 289.205 1262.16 289.655 1262.16 290.136V290.909C1262.16 291.568 1262.27 292.127 1262.5 292.585C1262.73 293.04 1263.05 293.386 1263.46 293.625C1263.87 293.86 1264.34 293.977 1264.89 293.977C1265.24 293.977 1265.56 293.928 1265.84 293.83C1266.13 293.727 1266.38 293.576 1266.59 293.375C1266.79 293.17 1266.95 292.917 1267.07 292.614L1268.36 292.977C1268.23 293.417 1268 293.803 1267.68 294.136C1267.35 294.466 1266.96 294.723 1266.48 294.909C1266.01 295.091 1265.48 295.182 1264.89 295.182ZM1273.11 295.205C1272.55 295.205 1272.05 295.1 1271.6 294.892C1271.15 294.68 1270.79 294.375 1270.53 293.977C1270.26 293.576 1270.13 293.091 1270.13 292.523C1270.13 292.023 1270.23 291.617 1270.43 291.307C1270.62 290.992 1270.89 290.746 1271.22 290.568C1271.55 290.39 1271.91 290.258 1272.31 290.17C1272.71 290.08 1273.11 290.008 1273.52 289.955C1274.05 289.886 1274.48 289.835 1274.81 289.801C1275.14 289.763 1275.38 289.701 1275.53 289.614C1275.69 289.527 1275.77 289.375 1275.77 289.159V289.114C1275.77 288.553 1275.61 288.117 1275.31 287.807C1275 287.496 1274.54 287.341 1273.93 287.341C1273.29 287.341 1272.78 287.481 1272.42 287.761C1272.06 288.042 1271.8 288.341 1271.65 288.659L1270.38 288.205C1270.61 287.674 1270.91 287.261 1271.29 286.966C1271.67 286.667 1272.09 286.458 1272.54 286.341C1272.99 286.22 1273.44 286.159 1273.88 286.159C1274.16 286.159 1274.48 286.193 1274.85 286.261C1275.21 286.326 1275.57 286.46 1275.91 286.665C1276.25 286.869 1276.54 287.178 1276.77 287.591C1276.99 288.004 1277.11 288.557 1277.11 289.25V295H1275.77V293.818H1275.7C1275.61 294.008 1275.46 294.21 1275.24 294.426C1275.03 294.642 1274.75 294.826 1274.4 294.977C1274.05 295.129 1273.62 295.205 1273.11 295.205ZM1273.31 294C1273.84 294 1274.29 293.896 1274.65 293.688C1275.02 293.479 1275.3 293.21 1275.48 292.881C1275.67 292.551 1275.77 292.205 1275.77 291.841V290.614C1275.71 290.682 1275.59 290.744 1275.39 290.801C1275.2 290.854 1274.98 290.902 1274.73 290.943C1274.49 290.981 1274.25 291.015 1274.01 291.045C1273.78 291.072 1273.59 291.095 1273.45 291.114C1273.1 291.159 1272.77 291.233 1272.47 291.335C1272.17 291.434 1271.93 291.583 1271.74 291.784C1271.56 291.981 1271.47 292.25 1271.47 292.591C1271.47 293.057 1271.64 293.409 1271.99 293.648C1272.34 293.883 1272.78 294 1273.31 294ZM1279.56 295V286.273H1280.85V287.591H1280.94C1281.1 287.159 1281.39 286.809 1281.81 286.54C1282.22 286.271 1282.69 286.136 1283.21 286.136C1283.31 286.136 1283.44 286.138 1283.58 286.142C1283.73 286.146 1283.84 286.152 1283.92 286.159V287.523C1283.87 287.511 1283.77 287.494 1283.61 287.472C1283.45 287.445 1283.28 287.432 1283.1 287.432C1282.68 287.432 1282.3 287.521 1281.96 287.699C1281.63 287.873 1281.37 288.116 1281.18 288.426C1280.99 288.733 1280.9 289.083 1280.9 289.477V295H1279.56ZM1286.85 289.75V295H1285.51V286.273H1286.8V287.636H1286.92C1287.12 287.193 1287.43 286.837 1287.85 286.568C1288.27 286.295 1288.8 286.159 1289.46 286.159C1290.05 286.159 1290.57 286.28 1291.01 286.523C1291.46 286.761 1291.8 287.125 1292.05 287.614C1292.29 288.098 1292.42 288.712 1292.42 289.455V295H1291.08V289.545C1291.08 288.86 1290.9 288.326 1290.54 287.943C1290.19 287.557 1289.7 287.364 1289.08 287.364C1288.65 287.364 1288.27 287.456 1287.93 287.642C1287.6 287.828 1287.33 288.098 1287.14 288.455C1286.95 288.811 1286.85 289.242 1286.85 289.75ZM1294.87 295V286.273H1296.21V295H1294.87ZM1295.55 284.818C1295.29 284.818 1295.06 284.729 1294.87 284.551C1294.69 284.373 1294.6 284.159 1294.6 283.909C1294.6 283.659 1294.69 283.445 1294.87 283.267C1295.06 283.089 1295.29 283 1295.55 283C1295.81 283 1296.03 283.089 1296.22 283.267C1296.41 283.445 1296.5 283.659 1296.5 283.909C1296.5 284.159 1296.41 284.373 1296.22 284.551C1296.03 284.729 1295.81 284.818 1295.55 284.818ZM1300.01 289.75V295H1298.66V286.273H1299.96V287.636H1300.07C1300.28 287.193 1300.59 286.837 1301.01 286.568C1301.42 286.295 1301.96 286.159 1302.62 286.159C1303.21 286.159 1303.73 286.28 1304.17 286.523C1304.61 286.761 1304.96 287.125 1305.2 287.614C1305.45 288.098 1305.57 288.712 1305.57 289.455V295H1304.23V289.545C1304.23 288.86 1304.05 288.326 1303.7 287.943C1303.34 287.557 1302.85 287.364 1302.23 287.364C1301.8 287.364 1301.42 287.456 1301.09 287.642C1300.75 287.828 1300.49 288.098 1300.3 288.455C1300.1 288.811 1300.01 289.242 1300.01 289.75ZM1311.55 298.455C1310.9 298.455 1310.34 298.371 1309.88 298.205C1309.41 298.042 1309.02 297.826 1308.71 297.557C1308.4 297.292 1308.16 297.008 1307.98 296.705L1309.05 295.955C1309.17 296.114 1309.32 296.295 1309.51 296.5C1309.69 296.708 1309.95 296.888 1310.27 297.04C1310.59 297.195 1311.02 297.273 1311.55 297.273C1312.25 297.273 1312.83 297.102 1313.29 296.761C1313.75 296.42 1313.98 295.886 1313.98 295.159V293.386H1313.87C1313.77 293.545 1313.63 293.742 1313.44 293.977C1313.27 294.208 1313.01 294.415 1312.67 294.597C1312.34 294.775 1311.89 294.864 1311.32 294.864C1310.62 294.864 1309.98 294.697 1309.42 294.364C1308.87 294.03 1308.42 293.545 1308.1 292.909C1307.78 292.273 1307.62 291.5 1307.62 290.591C1307.62 289.697 1307.77 288.919 1308.09 288.256C1308.4 287.589 1308.84 287.074 1309.4 286.71C1309.96 286.343 1310.61 286.159 1311.34 286.159C1311.91 286.159 1312.36 286.254 1312.69 286.443C1313.03 286.629 1313.29 286.841 1313.47 287.08C1313.65 287.314 1313.79 287.508 1313.89 287.659H1314.02V286.273H1315.32V295.25C1315.32 296 1315.15 296.61 1314.81 297.08C1314.47 297.553 1314.02 297.9 1313.44 298.119C1312.88 298.343 1312.24 298.455 1311.55 298.455ZM1311.5 293.659C1312.04 293.659 1312.49 293.536 1312.87 293.29C1313.24 293.044 1313.52 292.689 1313.71 292.227C1313.9 291.765 1314 291.212 1314 290.568C1314 289.939 1313.91 289.384 1313.72 288.903C1313.53 288.422 1313.25 288.045 1312.88 287.773C1312.51 287.5 1312.05 287.364 1311.5 287.364C1310.93 287.364 1310.46 287.508 1310.08 287.795C1309.71 288.083 1309.42 288.47 1309.23 288.955C1309.05 289.439 1308.96 289.977 1308.96 290.568C1308.96 291.174 1309.05 291.71 1309.24 292.176C1309.43 292.638 1309.72 293.002 1310.09 293.267C1310.47 293.528 1310.94 293.659 1311.5 293.659ZM1318.75 295.091C1318.47 295.091 1318.23 294.991 1318.03 294.79C1317.83 294.589 1317.73 294.348 1317.73 294.068C1317.73 293.788 1317.83 293.547 1318.03 293.347C1318.23 293.146 1318.47 293.045 1318.75 293.045C1319.03 293.045 1319.27 293.146 1319.47 293.347C1319.67 293.547 1319.77 293.788 1319.77 294.068C1319.77 294.254 1319.73 294.424 1319.63 294.58C1319.54 294.735 1319.42 294.86 1319.26 294.955C1319.11 295.045 1318.94 295.091 1318.75 295.091ZM1326.86 295V283.364H1328.27V293.75H1333.68V295H1326.86ZM1339.34 295.182C1338.5 295.182 1337.77 294.996 1337.16 294.625C1336.56 294.25 1336.09 293.727 1335.76 293.057C1335.43 292.383 1335.27 291.598 1335.27 290.705C1335.27 289.811 1335.43 289.023 1335.76 288.341C1336.09 287.655 1336.55 287.121 1337.13 286.739C1337.73 286.352 1338.42 286.159 1339.2 286.159C1339.66 286.159 1340.11 286.235 1340.55 286.386C1340.99 286.538 1341.4 286.784 1341.76 287.125C1342.12 287.462 1342.41 287.909 1342.63 288.466C1342.85 289.023 1342.95 289.708 1342.95 290.523V291.091H1336.23V289.932H1341.59C1341.59 289.439 1341.49 289 1341.29 288.614C1341.1 288.227 1340.82 287.922 1340.46 287.699C1340.11 287.475 1339.69 287.364 1339.2 287.364C1338.67 287.364 1338.21 287.496 1337.82 287.761C1337.43 288.023 1337.13 288.364 1336.92 288.784C1336.72 289.205 1336.61 289.655 1336.61 290.136V290.909C1336.61 291.568 1336.73 292.127 1336.95 292.585C1337.18 293.04 1337.5 293.386 1337.91 293.625C1338.32 293.86 1338.8 293.977 1339.34 293.977C1339.69 293.977 1340.01 293.928 1340.29 293.83C1340.58 293.727 1340.83 293.576 1341.04 293.375C1341.25 293.17 1341.41 292.917 1341.52 292.614L1342.82 292.977C1342.68 293.417 1342.45 293.803 1342.13 294.136C1341.81 294.466 1341.41 294.723 1340.94 294.909C1340.46 295.091 1339.93 295.182 1339.34 295.182ZM1347.56 295.205C1347.01 295.205 1346.51 295.1 1346.06 294.892C1345.6 294.68 1345.25 294.375 1344.98 293.977C1344.72 293.576 1344.58 293.091 1344.58 292.523C1344.58 292.023 1344.68 291.617 1344.88 291.307C1345.08 290.992 1345.34 290.746 1345.67 290.568C1346 290.39 1346.36 290.258 1346.76 290.17C1347.16 290.08 1347.56 290.008 1347.97 289.955C1348.5 289.886 1348.93 289.835 1349.26 289.801C1349.59 289.763 1349.84 289.701 1349.99 289.614C1350.14 289.527 1350.22 289.375 1350.22 289.159V289.114C1350.22 288.553 1350.07 288.117 1349.76 287.807C1349.46 287.496 1349 287.341 1348.38 287.341C1347.74 287.341 1347.24 287.481 1346.87 287.761C1346.51 288.042 1346.25 288.341 1346.11 288.659L1344.83 288.205C1345.06 287.674 1345.36 287.261 1345.74 286.966C1346.13 286.667 1346.54 286.458 1346.99 286.341C1347.45 286.22 1347.89 286.159 1348.33 286.159C1348.61 286.159 1348.94 286.193 1349.3 286.261C1349.67 286.326 1350.02 286.46 1350.36 286.665C1350.71 286.869 1350.99 287.178 1351.22 287.591C1351.45 288.004 1351.56 288.557 1351.56 289.25V295H1350.22V293.818H1350.15C1350.06 294.008 1349.91 294.21 1349.7 294.426C1349.49 294.642 1349.2 294.826 1348.85 294.977C1348.5 295.129 1348.07 295.205 1347.56 295.205ZM1347.77 294C1348.3 294 1348.74 293.896 1349.11 293.688C1349.47 293.479 1349.75 293.21 1349.94 292.881C1350.13 292.551 1350.22 292.205 1350.22 291.841V290.614C1350.16 290.682 1350.04 290.744 1349.85 290.801C1349.66 290.854 1349.44 290.902 1349.19 290.943C1348.94 290.981 1348.7 291.015 1348.46 291.045C1348.23 291.072 1348.05 291.095 1347.9 291.114C1347.55 291.159 1347.23 291.233 1346.92 291.335C1346.63 291.434 1346.38 291.583 1346.2 291.784C1346.02 291.981 1345.92 292.25 1345.92 292.591C1345.92 293.057 1346.1 293.409 1346.44 293.648C1346.79 293.883 1347.23 294 1347.77 294ZM1354.01 295V286.273H1355.3V287.591H1355.39C1355.55 287.159 1355.84 286.809 1356.26 286.54C1356.68 286.271 1357.14 286.136 1357.67 286.136C1357.77 286.136 1357.89 286.138 1358.04 286.142C1358.18 286.146 1358.3 286.152 1358.37 286.159V287.523C1358.33 287.511 1358.22 287.494 1358.06 287.472C1357.9 287.445 1357.73 287.432 1357.55 287.432C1357.13 287.432 1356.75 287.521 1356.42 287.699C1356.09 287.873 1355.83 288.116 1355.63 288.426C1355.44 288.733 1355.35 289.083 1355.35 289.477V295H1354.01ZM1361.3 289.75V295H1359.96V286.273H1361.26V287.636H1361.37C1361.58 287.193 1361.89 286.837 1362.3 286.568C1362.72 286.295 1363.26 286.159 1363.92 286.159C1364.51 286.159 1365.02 286.28 1365.47 286.523C1365.91 286.761 1366.26 287.125 1366.5 287.614C1366.75 288.098 1366.87 288.712 1366.87 289.455V295H1365.53V289.545C1365.53 288.86 1365.35 288.326 1365 287.943C1364.64 287.557 1364.15 287.364 1363.53 287.364C1363.1 287.364 1362.72 287.456 1362.38 287.642C1362.05 287.828 1361.79 288.098 1361.59 288.455C1361.4 288.811 1361.3 289.242 1361.3 289.75ZM1369.32 295V286.273H1370.66V295H1369.32ZM1370 284.818C1369.74 284.818 1369.52 284.729 1369.33 284.551C1369.14 284.373 1369.05 284.159 1369.05 283.909C1369.05 283.659 1369.14 283.445 1369.33 283.267C1369.52 283.089 1369.74 283 1370 283C1370.26 283 1370.49 283.089 1370.67 283.267C1370.86 283.445 1370.96 283.659 1370.96 283.909C1370.96 284.159 1370.86 284.373 1370.67 284.551C1370.49 284.729 1370.26 284.818 1370 284.818ZM1374.46 289.75V295H1373.12V286.273H1374.41V287.636H1374.53C1374.73 287.193 1375.04 286.837 1375.46 286.568C1375.88 286.295 1376.41 286.159 1377.07 286.159C1377.66 286.159 1378.18 286.28 1378.62 286.523C1379.07 286.761 1379.41 287.125 1379.66 287.614C1379.9 288.098 1380.03 288.712 1380.03 289.455V295H1378.69V289.545C1378.69 288.86 1378.51 288.326 1378.15 287.943C1377.8 287.557 1377.31 287.364 1376.69 287.364C1376.26 287.364 1375.88 287.456 1375.54 287.642C1375.21 287.828 1374.94 288.098 1374.75 288.455C1374.56 288.811 1374.46 289.242 1374.46 289.75ZM1386 298.455C1385.35 298.455 1384.8 298.371 1384.33 298.205C1383.86 298.042 1383.48 297.826 1383.16 297.557C1382.86 297.292 1382.61 297.008 1382.43 296.705L1383.5 295.955C1383.62 296.114 1383.77 296.295 1383.96 296.5C1384.15 296.708 1384.4 296.888 1384.72 297.04C1385.05 297.195 1385.47 297.273 1386 297.273C1386.7 297.273 1387.29 297.102 1387.74 296.761C1388.2 296.42 1388.43 295.886 1388.43 295.159V293.386H1388.32C1388.22 293.545 1388.08 293.742 1387.9 293.977C1387.72 294.208 1387.46 294.415 1387.12 294.597C1386.79 294.775 1386.34 294.864 1385.77 294.864C1385.07 294.864 1384.44 294.697 1383.88 294.364C1383.32 294.03 1382.88 293.545 1382.55 292.909C1382.23 292.273 1382.07 291.5 1382.07 290.591C1382.07 289.697 1382.23 288.919 1382.54 288.256C1382.85 287.589 1383.29 287.074 1383.85 286.71C1384.41 286.343 1385.06 286.159 1385.8 286.159C1386.36 286.159 1386.81 286.254 1387.15 286.443C1387.48 286.629 1387.74 286.841 1387.92 287.08C1388.1 287.314 1388.24 287.508 1388.34 287.659H1388.48V286.273H1389.77V295.25C1389.77 296 1389.6 296.61 1389.26 297.08C1388.92 297.553 1388.47 297.9 1387.9 298.119C1387.33 298.343 1386.7 298.455 1386 298.455ZM1385.95 293.659C1386.49 293.659 1386.95 293.536 1387.32 293.29C1387.69 293.044 1387.97 292.689 1388.16 292.227C1388.36 291.765 1388.45 291.212 1388.45 290.568C1388.45 289.939 1388.36 289.384 1388.17 288.903C1387.98 288.422 1387.7 288.045 1387.33 287.773C1386.96 287.5 1386.5 287.364 1385.95 287.364C1385.39 287.364 1384.91 287.508 1384.53 287.795C1384.16 288.083 1383.88 288.47 1383.69 288.955C1383.5 289.439 1383.41 289.977 1383.41 290.568C1383.41 291.174 1383.5 291.71 1383.69 292.176C1383.89 292.638 1384.17 293.002 1384.55 293.267C1384.92 293.528 1385.39 293.659 1385.95 293.659ZM1398.07 289.75V295H1396.73V286.273H1398.02V287.636H1398.14C1398.34 287.193 1398.65 286.837 1399.07 286.568C1399.48 286.295 1400.02 286.159 1400.68 286.159C1401.27 286.159 1401.79 286.28 1402.23 286.523C1402.68 286.761 1403.02 287.125 1403.27 287.614C1403.51 288.098 1403.64 288.712 1403.64 289.455V295H1402.3V289.545C1402.3 288.86 1402.12 288.326 1401.76 287.943C1401.41 287.557 1400.92 287.364 1400.3 287.364C1399.87 287.364 1399.48 287.456 1399.15 287.642C1398.81 287.828 1398.55 288.098 1398.36 288.455C1398.16 288.811 1398.07 289.242 1398.07 289.75ZM1409.75 295.182C1408.9 295.182 1408.18 294.996 1407.57 294.625C1406.96 294.25 1406.5 293.727 1406.17 293.057C1405.84 292.383 1405.68 291.598 1405.68 290.705C1405.68 289.811 1405.84 289.023 1406.17 288.341C1406.5 287.655 1406.95 287.121 1407.54 286.739C1408.13 286.352 1408.82 286.159 1409.61 286.159C1410.06 286.159 1410.51 286.235 1410.96 286.386C1411.4 286.538 1411.8 286.784 1412.17 287.125C1412.53 287.462 1412.82 287.909 1413.04 288.466C1413.25 289.023 1413.36 289.708 1413.36 290.523V291.091H1406.63V289.932H1412C1412 289.439 1411.9 289 1411.7 288.614C1411.51 288.227 1411.23 287.922 1410.87 287.699C1410.51 287.475 1410.09 287.364 1409.61 287.364C1409.08 287.364 1408.61 287.496 1408.22 287.761C1407.84 288.023 1407.54 288.364 1407.33 288.784C1407.12 289.205 1407.02 289.655 1407.02 290.136V290.909C1407.02 291.568 1407.13 292.127 1407.36 292.585C1407.59 293.04 1407.91 293.386 1408.32 293.625C1408.73 293.86 1409.2 293.977 1409.75 293.977C1410.1 293.977 1410.42 293.928 1410.7 293.83C1410.99 293.727 1411.24 293.576 1411.44 293.375C1411.65 293.17 1411.81 292.917 1411.93 292.614L1413.22 292.977C1413.09 293.417 1412.86 293.803 1412.54 294.136C1412.21 294.466 1411.82 294.723 1411.34 294.909C1410.87 295.091 1410.34 295.182 1409.75 295.182ZM1422.27 286.273L1419.04 295H1417.68L1414.45 286.273H1415.91L1418.32 293.227H1418.41L1420.82 286.273H1422.27ZM1427.39 295.182C1426.55 295.182 1425.82 294.996 1425.21 294.625C1424.6 294.25 1424.14 293.727 1423.81 293.057C1423.48 292.383 1423.32 291.598 1423.32 290.705C1423.32 289.811 1423.48 289.023 1423.81 288.341C1424.14 287.655 1424.59 287.121 1425.18 286.739C1425.77 286.352 1426.46 286.159 1427.25 286.159C1427.7 286.159 1428.15 286.235 1428.6 286.386C1429.04 286.538 1429.44 286.784 1429.81 287.125C1430.17 287.462 1430.46 287.909 1430.68 288.466C1430.89 289.023 1431 289.708 1431 290.523V291.091H1424.27V289.932H1429.64C1429.64 289.439 1429.54 289 1429.34 288.614C1429.15 288.227 1428.87 287.922 1428.51 287.699C1428.16 287.475 1427.73 287.364 1427.25 287.364C1426.72 287.364 1426.25 287.496 1425.86 287.761C1425.48 288.023 1425.18 288.364 1424.97 288.784C1424.76 289.205 1424.66 289.655 1424.66 290.136V290.909C1424.66 291.568 1424.77 292.127 1425 292.585C1425.23 293.04 1425.55 293.386 1425.96 293.625C1426.37 293.86 1426.84 293.977 1427.39 293.977C1427.74 293.977 1428.06 293.928 1428.34 293.83C1428.63 293.727 1428.88 293.576 1429.09 293.375C1429.29 293.17 1429.45 292.917 1429.57 292.614L1430.86 292.977C1430.73 293.417 1430.5 293.803 1430.18 294.136C1429.85 294.466 1429.46 294.723 1428.98 294.909C1428.51 295.091 1427.98 295.182 1427.39 295.182ZM1433.04 295V286.273H1434.34V287.591H1434.43C1434.59 287.159 1434.87 286.809 1435.29 286.54C1435.71 286.271 1436.18 286.136 1436.7 286.136C1436.8 286.136 1436.92 286.138 1437.07 286.142C1437.22 286.146 1437.33 286.152 1437.4 286.159V287.523C1437.36 287.511 1437.25 287.494 1437.09 287.472C1436.93 287.445 1436.76 287.432 1436.59 287.432C1436.16 287.432 1435.78 287.521 1435.45 287.699C1435.12 287.873 1434.86 288.116 1434.66 288.426C1434.48 288.733 1434.38 289.083 1434.38 289.477V295H1433.04ZM1447.15 295.182C1446.31 295.182 1445.59 294.996 1444.98 294.625C1444.37 294.25 1443.9 293.727 1443.57 293.057C1443.25 292.383 1443.08 291.598 1443.08 290.705C1443.08 289.811 1443.25 289.023 1443.57 288.341C1443.9 287.655 1444.36 287.121 1444.95 286.739C1445.54 286.352 1446.23 286.159 1447.02 286.159C1447.47 286.159 1447.92 286.235 1448.36 286.386C1448.81 286.538 1449.21 286.784 1449.57 287.125C1449.94 287.462 1450.23 287.909 1450.44 288.466C1450.66 289.023 1450.77 289.708 1450.77 290.523V291.091H1444.04V289.932H1449.4C1449.4 289.439 1449.3 289 1449.11 288.614C1448.91 288.227 1448.64 287.922 1448.28 287.699C1447.92 287.475 1447.5 287.364 1447.02 287.364C1446.48 287.364 1446.02 287.496 1445.63 287.761C1445.24 288.023 1444.95 288.364 1444.74 288.784C1444.53 289.205 1444.42 289.655 1444.42 290.136V290.909C1444.42 291.568 1444.54 292.127 1444.77 292.585C1445 293.04 1445.32 293.386 1445.73 293.625C1446.13 293.86 1446.61 293.977 1447.15 293.977C1447.5 293.977 1447.82 293.928 1448.11 293.83C1448.39 293.727 1448.64 293.576 1448.85 293.375C1449.06 293.17 1449.22 292.917 1449.33 292.614L1450.63 292.977C1450.49 293.417 1450.26 293.803 1449.94 294.136C1449.62 294.466 1449.22 294.723 1448.75 294.909C1448.28 295.091 1447.74 295.182 1447.15 295.182ZM1454.15 289.75V295H1452.81V286.273H1454.1V287.636H1454.21C1454.42 287.193 1454.73 286.837 1455.15 286.568C1455.56 286.295 1456.1 286.159 1456.76 286.159C1457.35 286.159 1457.87 286.28 1458.31 286.523C1458.75 286.761 1459.1 287.125 1459.35 287.614C1459.59 288.098 1459.71 288.712 1459.71 289.455V295H1458.37V289.545C1458.37 288.86 1458.2 288.326 1457.84 287.943C1457.48 287.557 1456.99 287.364 1456.37 287.364C1455.95 287.364 1455.56 287.456 1455.23 287.642C1454.89 287.828 1454.63 288.098 1454.44 288.455C1454.24 288.811 1454.15 289.242 1454.15 289.75ZM1465.46 295.182C1464.73 295.182 1464.09 294.998 1463.53 294.631C1462.98 294.259 1462.54 293.737 1462.23 293.062C1461.91 292.384 1461.76 291.583 1461.76 290.659C1461.76 289.742 1461.91 288.947 1462.23 288.273C1462.54 287.598 1462.98 287.078 1463.54 286.71C1464.1 286.343 1464.75 286.159 1465.48 286.159C1466.05 286.159 1466.5 286.254 1466.83 286.443C1467.16 286.629 1467.42 286.841 1467.59 287.08C1467.77 287.314 1467.91 287.508 1468.01 287.659H1468.12V283.364H1469.46V295H1468.16V293.659H1468.01C1467.91 293.818 1467.77 294.019 1467.59 294.261C1467.4 294.5 1467.14 294.714 1466.81 294.903C1466.47 295.089 1466.02 295.182 1465.46 295.182ZM1465.64 293.977C1466.18 293.977 1466.63 293.837 1467.01 293.557C1467.38 293.273 1467.66 292.881 1467.85 292.381C1468.05 291.877 1468.14 291.295 1468.14 290.636C1468.14 289.985 1468.05 289.415 1467.86 288.926C1467.67 288.434 1467.39 288.051 1467.02 287.778C1466.65 287.502 1466.19 287.364 1465.64 287.364C1465.07 287.364 1464.6 287.509 1464.22 287.801C1463.85 288.089 1463.56 288.481 1463.38 288.977C1463.19 289.47 1463.1 290.023 1463.1 290.636C1463.1 291.258 1463.19 291.822 1463.38 292.33C1463.57 292.833 1463.86 293.235 1464.23 293.534C1464.61 293.83 1465.08 293.977 1465.64 293.977ZM1478.28 288.227L1477.08 288.568C1477 288.367 1476.89 288.172 1476.74 287.983C1476.6 287.79 1476.4 287.631 1476.15 287.506C1475.9 287.381 1475.58 287.318 1475.19 287.318C1474.66 287.318 1474.21 287.441 1473.86 287.688C1473.51 287.93 1473.33 288.239 1473.33 288.614C1473.33 288.947 1473.45 289.21 1473.69 289.403C1473.94 289.597 1474.31 289.758 1474.83 289.886L1476.12 290.205C1476.91 290.394 1477.49 290.684 1477.87 291.074C1478.25 291.46 1478.44 291.958 1478.44 292.568C1478.44 293.068 1478.3 293.515 1478.01 293.909C1477.73 294.303 1477.33 294.614 1476.82 294.841C1476.31 295.068 1475.71 295.182 1475.03 295.182C1474.14 295.182 1473.41 294.989 1472.82 294.602C1472.24 294.216 1471.87 293.652 1471.72 292.909L1472.99 292.591C1473.11 293.061 1473.34 293.413 1473.68 293.648C1474.02 293.883 1474.46 294 1475.01 294C1475.64 294 1476.13 293.867 1476.5 293.602C1476.87 293.333 1477.06 293.011 1477.06 292.636C1477.06 292.333 1476.95 292.08 1476.74 291.875C1476.53 291.667 1476.2 291.511 1475.76 291.409L1474.31 291.068C1473.51 290.879 1472.92 290.585 1472.55 290.188C1472.17 289.786 1471.99 289.284 1471.99 288.682C1471.99 288.189 1472.13 287.754 1472.4 287.375C1472.68 286.996 1473.06 286.699 1473.55 286.483C1474.03 286.267 1474.58 286.159 1475.19 286.159C1476.06 286.159 1476.73 286.348 1477.23 286.727C1477.72 287.106 1478.08 287.606 1478.28 288.227ZM1481.44 295.091C1481.16 295.091 1480.92 294.991 1480.72 294.79C1480.52 294.589 1480.42 294.348 1480.42 294.068C1480.42 293.788 1480.52 293.547 1480.72 293.347C1480.92 293.146 1481.16 293.045 1481.44 293.045C1481.72 293.045 1481.96 293.146 1482.16 293.347C1482.36 293.547 1482.46 293.788 1482.46 294.068C1482.46 294.254 1482.41 294.424 1482.32 294.58C1482.23 294.735 1482.11 294.86 1481.95 294.955C1481.8 295.045 1481.63 295.091 1481.44 295.091Z" fill="#F4F4F5"/>
</g>
<defs>
<filter id="filter0_d_1_70" x="1088.26" y="121.025" width="397.728" height="56.9745" filterUnits="userSpaceOnUse" color-interpolation-filters="sRGB">
<feFlood flood-opacity="0" result="BackgroundImageFix"/>
<feColorMatrix in="SourceAlpha" type="matrix" values="0 0 0 0 0 0 0 0 0 0 0 0 0 0 0 0 0 0 127 0" result="hardAlpha"/>
<feOffset dy="4"/>
<feGaussianBlur stdDeviation="2"/>
<feComposite in2="hardAlpha" operator="out"/>
<feColorMatrix type="matrix" values="0 0 0 0 0 0 0 0 0 0 0 0 0 0 0 0 0 0 0.25 0"/>
<feBlend mode="normal" in2="BackgroundImageFix" result="effect1_dropShadow_1_70"/>
<feBlend mode="normal" in="SourceGraphic" in2="effect1_dropShadow_1_70" result="shape"/>
</filter>
<linearGradient id="paint0_linear_1_70" x1="203" y1="921.5" x2="2558.5" y2="-587" gradientUnits="userSpaceOnUse">
<stop offset="0.07029" stop-color="#16161D"/>
<stop offset="1" stop-color="#636383"/>
</linearGradient>
<clipPath id="clip0_1_70">
<rect width="1584" height="396" rx="8" fill="white"/>
</clipPath>
<clipPath id="clip1_1_70">
<rect width="48" height="48" fill="white" transform="translate(100 78)"/>
</clipPath>
<clipPath id="clip2_1_70">
<rect width="48" height="48" fill="white" transform="translate(100 142)"/>
</clipPath>
<clipPath id="clip3_1_70">
<rect width="48" height="48" fill="white" transform="translate(100 206)"/>
</clipPath>
<clipPath id="clip4_1_70">
<rect width="48" height="48" fill="white" transform="translate(100 270)"/>
</clipPath>
</defs>
</svg>
